<svg width="190" height="35" viewBox="0 0 190 35" fill="none" xmlns="http://www.w3.org/2000/svg">
<path d="M20.0227 5.11738L22.5893 10.2507C22.9393 10.9653 23.8727 11.6507 24.6602 11.782L29.3122 12.5549C32.2872 13.0507 32.9872 15.209 30.8435 17.3382L27.2268 20.9549C26.6143 21.5674 26.2789 22.7486 26.4685 23.5945L27.5039 28.0715C28.3206 31.6153 26.4393 32.9861 23.3039 31.134L18.9435 28.5528C18.156 28.0861 16.8581 28.0861 16.056 28.5528L11.6956 31.134C8.57475 32.9861 6.67891 31.6007 7.49558 28.0715L8.53099 23.5945C8.72058 22.7486 8.38516 21.5674 7.77266 20.9549L4.156 17.3382C2.02683 15.209 2.71225 13.0507 5.68725 12.5549L10.3393 11.782C11.1122 11.6507 12.0456 10.9653 12.3956 10.2507L14.9622 5.11738C16.3622 2.33197 18.6372 2.33197 20.0227 5.11738Z" fill="#FFCA01"/>
<path d="M58.593 5.11738L61.1596 10.2507C61.5096 10.9653 62.443 11.6507 63.2305 11.782L67.8826 12.5549C70.8576 13.0507 71.5576 15.209 69.4138 17.3382L65.7971 20.9549C65.1846 21.5674 64.8492 22.7486 65.0388 23.5945L66.0742 28.0715C66.8909 31.6153 65.0096 32.9861 61.8742 31.134L57.5138 28.5528C56.7263 28.0861 55.4284 28.0861 54.6263 28.5528L50.2659 31.134C47.1451 32.9861 45.2492 31.6007 46.0659 28.0715L47.1013 23.5945C47.2909 22.7486 46.9555 21.5674 46.343 20.9549L42.7263 17.3382C40.5971 15.209 41.2826 13.0507 44.2576 12.5549L48.9096 11.782C49.6826 11.6507 50.6159 10.9653 50.9659 10.2507L53.5326 5.11738C54.9326 2.33197 57.2076 2.33197 58.593 5.11738Z" fill="#FFCA01"/>
<path d="M97.1633 5.11738L99.73 10.2507C100.08 10.9653 101.013 11.6507 101.801 11.782L106.453 12.5549C109.428 13.0507 110.128 15.209 107.984 17.3382L104.367 20.9549C103.755 21.5674 103.42 22.7486 103.609 23.5945L104.645 28.0715C105.461 31.6153 103.58 32.9861 100.445 31.134L96.0841 28.5528C95.2966 28.0861 93.9987 28.0861 93.1966 28.5528L88.8362 31.134C85.7154 32.9861 83.8195 31.6007 84.6362 28.0715L85.6716 23.5945C85.8612 22.7486 85.5258 21.5674 84.9133 20.9549L81.2966 17.3382C79.1675 15.209 79.8529 13.0507 82.8279 12.5549L87.48 11.782C88.2529 11.6507 89.1862 10.9653 89.5362 10.2507L92.1029 5.11738C93.5029 2.33197 95.7779 2.33197 97.1633 5.11738Z" fill="#FFCA01"/>
<path d="M135.734 5.11738L138.3 10.2507C138.65 10.9653 139.584 11.6507 140.371 11.782L145.023 12.5549C147.998 13.0507 148.698 15.209 146.554 17.3382L142.938 20.9549C142.325 21.5674 141.99 22.7486 142.179 23.5945L143.215 28.0715C144.032 31.6153 142.15 32.9861 139.015 31.134L134.654 28.5528C133.867 28.0861 132.569 28.0861 131.767 28.5528L127.407 31.134C124.286 32.9861 122.39 31.6007 123.207 28.0715L124.242 23.5945C124.432 22.7486 124.096 21.5674 123.484 20.9549L119.867 17.3382C117.738 15.209 118.423 13.0507 121.398 12.5549L126.05 11.782C126.823 11.6507 127.757 10.9653 128.107 10.2507L130.673 5.11738C132.073 2.33197 134.348 2.33197 135.734 5.11738Z" fill="#FFCA01"/>
<path d="M174.304 5.11738L176.871 10.2507C177.221 10.9653 178.154 11.6507 178.941 11.782L183.593 12.5549C186.568 13.0507 187.268 15.209 185.125 17.3382L181.508 20.9549C180.896 21.5674 180.56 22.7486 180.75 23.5945L181.785 28.0715C182.602 31.6153 180.721 32.9861 177.585 31.134L173.225 28.5528C172.437 28.0861 171.139 28.0861 170.337 28.5528L165.977 31.134C162.856 32.9861 160.96 31.6007 161.777 28.0715L162.812 23.5945C163.002 22.7486 162.666 21.5674 162.054 20.9549L158.437 17.3382C156.308 15.209 156.993 13.0507 159.968 12.5549L164.621 11.782C165.393 11.6507 166.327 10.9653 166.677 10.2507L169.243 5.11738C170.643 2.33197 172.918 2.33197 174.304 5.11738Z" fill="#FFCA01"/>
</svg>
