<svg width="982" height="382" viewBox="0 0 982 382" fill="none" xmlns="http://www.w3.org/2000/svg">
<path d="M413.572 262.331C416.259 263.461 418.873 264.69 421.41 266.01L422.216 264.461C419.637 263.118 416.982 261.868 414.25 260.72L413.572 262.331ZM428.925 270.316C431.386 271.86 433.768 273.494 436.074 275.208L437.116 273.805C434.775 272.064 432.355 270.405 429.853 268.835L428.925 270.316ZM442.825 280.642C445.015 282.546 447.126 284.524 449.157 286.567L450.397 285.336C448.336 283.263 446.195 281.255 443.972 279.323L442.825 280.642ZM455.052 292.933C456.95 295.13 458.767 297.384 460.503 299.686L461.898 298.635C460.14 296.302 458.298 294.017 456.374 291.79L455.052 292.933ZM465.504 306.785C467.104 309.213 468.621 311.682 470.056 314.179L471.572 313.31C470.119 310.78 468.583 308.283 466.964 305.823L465.504 306.785ZM474.156 321.837C475.458 324.448 476.673 327.08 477.804 329.722L479.411 329.033C478.266 326.361 477.037 323.699 475.719 321.057L474.156 321.837ZM480.995 337.804C481.993 340.559 482.898 343.314 483.716 346.053L485.39 345.555C484.565 342.783 483.646 339.997 482.637 337.208L480.995 337.804ZM485.95 354.449C486.623 357.322 487.195 360.165 487.667 362.962L489.39 362.67C488.912 359.837 488.332 356.958 487.651 354.05L485.95 354.449ZM488.818 371.563C488.917 372.561 489.001 373.55 489.072 374.532L490.814 374.406C490.743 373.409 490.657 372.405 490.557 371.392L488.818 371.563Z" fill="#C1E6FB"/>
<path d="M149.214 392.378C149.337 389.486 149.542 386.596 149.825 383.712L148.086 383.541C147.8 386.456 147.594 389.378 147.467 392.304L149.214 392.378ZM150.91 375.091C151.35 372.23 151.87 369.379 152.465 366.544L150.756 366.185C150.153 369.05 149.629 371.932 149.184 374.827L150.91 375.091ZM154.489 358.095C155.242 355.298 156.071 352.522 156.977 349.772L155.319 349.226C154.402 352.007 153.563 354.813 152.801 357.642L154.489 358.095ZM159.931 341.603C160.994 338.909 162.131 336.245 163.346 333.618L161.76 332.885C160.531 335.542 159.38 338.236 158.306 340.963L159.931 341.603ZM167.219 325.845C168.586 323.294 170.029 320.783 171.548 318.318L170.059 317.402C168.523 319.897 167.063 322.438 165.678 325.02L167.219 325.845ZM176.324 311.07C177.059 310.027 177.81 308.993 178.573 307.969C179.541 306.674 180.531 305.396 181.544 304.135L180.182 303.041C179.156 304.317 178.154 305.611 177.173 306.924C176.399 307.96 175.64 309.007 174.896 310.063L176.324 311.07ZM187.195 297.547C189.148 295.41 191.167 293.337 193.251 291.329L192.04 290.07C189.929 292.103 187.882 294.205 185.906 296.367L187.195 297.547ZM199.689 285.506C201.897 283.634 204.163 281.831 206.483 280.103L205.44 278.702C203.09 280.452 200.795 282.276 198.558 284.174L199.689 285.506ZM213.607 275.146C216.037 273.571 218.514 272.074 221.038 270.661L220.184 269.136C217.627 270.568 215.116 272.083 212.657 273.68L213.607 275.146ZM228.745 266.675C231.358 265.432 234.012 264.279 236.701 263.216L236.06 261.591C233.333 262.668 230.643 263.837 227.994 265.096L228.745 266.675ZM244.875 260.315C247.303 259.547 249.756 258.854 252.23 258.24C252.562 258.158 252.897 258.077 253.229 257.998L252.827 256.298C252.486 256.377 252.147 256.46 251.81 256.544C249.298 257.168 246.81 257.869 244.349 258.649L244.875 260.315ZM261.734 256.377C264.581 255.963 267.459 255.671 270.348 255.508L270.248 253.763C267.309 253.929 264.38 254.227 261.482 254.648L261.734 256.377ZM279.003 255.405C281.896 255.503 284.777 255.734 287.626 256.105L287.851 254.372C284.947 253.994 282.009 253.758 279.062 253.658L279.003 255.405ZM296.128 257.662C298.949 258.335 301.712 259.16 304.397 260.14L304.997 258.5C302.246 257.494 299.417 256.65 296.533 255.963L296.128 257.662ZM312.284 263.612C314.838 264.946 317.287 266.448 319.604 268.127L320.628 266.713C318.239 264.982 315.719 263.433 313.093 262.063L312.284 263.612ZM326.14 273.692C328.062 275.618 329.851 277.706 331.482 279.963L331.681 280.24L333.105 279.228L332.899 278.939C331.211 276.605 329.363 274.446 327.375 272.457L326.14 273.692ZM335.902 287.663C337.041 290.3 337.853 293.046 338.214 295.808L339.947 295.581C339.562 292.632 338.7 289.734 337.505 286.969L335.902 287.663ZM337.807 304.159C337.126 306.894 335.848 309.404 334.13 311.607L335.506 312.681C337.364 310.304 338.759 307.572 339.502 304.58L337.807 304.159ZM327.861 317.173C325.473 318.647 322.822 319.735 320.076 320.351L320.459 322.055C323.398 321.395 326.225 320.235 328.78 318.66L327.861 317.173ZM311.712 320.715C311.387 320.668 311.064 320.614 310.741 320.552C308.285 320.079 305.942 319.223 303.758 318.051L302.933 319.591C305.263 320.84 307.773 321.759 310.412 322.267C310.762 322.334 311.112 322.393 311.463 322.445L311.712 320.715ZM297.024 312.965C295.051 310.953 293.349 308.649 291.986 306.158L290.453 306.994C291.891 309.628 293.687 312.06 295.778 314.189L297.024 312.965ZM288.998 298.239C288.813 297.401 288.664 296.557 288.554 295.706C288.383 294.375 288.299 293.036 288.299 291.7C288.299 291.063 288.318 290.429 288.356 289.796L286.611 289.693C286.572 290.36 286.553 291.03 286.553 291.7C286.553 293.108 286.64 294.522 286.822 295.931C286.937 296.833 287.096 297.729 287.292 298.617L288.998 298.239ZM289.901 281.434C290.743 278.729 291.899 276.105 293.325 273.624L291.811 272.753C290.324 275.341 289.114 278.081 288.231 280.914L289.901 281.434ZM298.334 266.71C299.283 265.653 300.287 264.648 301.338 263.701C302.175 262.948 303.336 262.145 304.791 261.341L303.945 259.813C302.406 260.665 301.142 261.528 300.17 262.402C299.071 263.39 298.024 264.44 297.034 265.543L298.334 266.71ZM312.673 257.968C315.147 257.123 317.931 256.32 320.993 255.592L320.589 253.893C317.478 254.632 314.64 255.449 312.108 256.314L312.673 257.968ZM329.5 253.897C332.226 253.451 335.101 253.066 338.11 252.757L337.931 251.02C334.888 251.332 331.979 251.721 329.219 252.173L329.5 253.897ZM346.774 252.108C349.421 251.981 352.145 251.913 354.94 251.913C355.114 251.913 355.29 251.913 355.464 251.914L355.471 250.166C355.293 250.166 355.118 250.166 354.94 250.166C352.116 250.166 349.364 250.234 346.69 250.362L346.774 252.108ZM364.154 252.155C366.989 252.304 369.881 252.523 372.824 252.819L372.998 251.08C370.028 250.781 367.108 250.56 364.246 250.41L364.154 252.155ZM381.449 253.897C384.268 254.319 387.123 254.813 390.012 255.384L390.353 253.671C387.437 253.093 384.553 252.594 381.707 252.169L381.449 253.897Z" fill="#C1E6FB"/>
<path d="M85.5128 377.592C83.7929 375.264 82.1474 372.882 80.5779 370.451L79.1098 371.398C80.6998 373.859 82.3659 376.273 84.108 378.63L85.5128 377.592ZM76.1006 363.014C74.6864 360.489 73.3497 357.921 72.0922 355.312L70.518 356.071C71.7897 358.711 73.1438 361.311 74.5771 363.867L76.1006 363.014ZM68.5684 347.379C67.4756 344.698 66.4651 341.985 65.5402 339.243L63.8837 339.801C64.8212 342.577 65.8443 345.325 66.9498 348.038L68.5684 347.379ZM63.0206 330.935C62.2667 328.14 61.5999 325.322 61.0219 322.488L59.3098 322.836C59.8942 325.707 60.5705 328.561 61.3323 331.39L63.0206 330.935ZM59.5632 313.934C59.1752 311.077 58.8933 308.193 58.7555 305.313L57.0102 305.396C57.1512 308.335 57.4378 311.268 57.8322 314.168L59.5632 313.934ZM58.8157 296.68C59.0089 293.8 59.389 290.951 59.9956 288.162L58.2883 287.791C57.6611 290.673 57.27 293.608 57.072 296.565L58.8157 296.68ZM62.5423 279.982C62.6943 279.616 62.8526 279.25 63.0158 278.886C64.0104 276.668 65.241 274.53 66.6695 272.525L65.2472 271.512C63.7538 273.609 62.4646 275.845 61.421 278.171C61.2515 278.548 61.0868 278.928 60.9284 279.31L62.5423 279.982ZM72.3662 266.189C74.5169 264.291 76.8766 262.668 79.3821 261.406L78.5966 259.846C75.947 261.181 73.4669 262.89 71.2101 264.879L72.3662 266.189ZM87.3927 258.761C88.7119 258.546 90.0534 258.433 91.4059 258.433C91.6847 258.433 91.9634 258.438 92.2421 258.447C93.4062 258.489 94.5845 258.637 95.7485 258.892L96.1207 257.185C94.8569 256.91 93.5756 256.745 92.3023 256.702C92.003 256.691 91.7053 256.686 91.4059 256.686C89.9552 256.686 88.5219 256.807 87.1108 257.036L87.3927 258.761ZM103.311 262.304C105.571 264.016 107.289 266.217 108.091 268.792L109.758 268.275C108.829 265.286 106.857 262.796 104.366 260.91L103.311 262.304ZM107.606 276.729C106.567 279.186 104.754 281.429 102.522 283.17L103.598 284.547C106.037 282.642 108.038 280.186 109.215 277.41L107.606 276.729ZM95.0137 286.687C92.855 287.195 90.6283 287.405 88.3683 287.405C87.7712 287.405 87.1726 287.39 86.5739 287.363L86.4932 289.109C87.1187 289.137 87.7427 289.153 88.3683 289.153C90.736 289.153 93.099 288.933 95.4144 288.388L95.0137 286.687ZM78.0344 286.278C77.4642 286.171 76.8973 286.06 76.3303 285.944C74.0592 285.483 71.7961 284.975 69.5471 284.422L69.129 286.119C71.4017 286.678 73.687 287.191 75.9834 287.656C76.5551 287.774 77.1316 287.886 77.7113 287.995L78.0344 286.278ZM61.1628 282.132C58.3865 281.299 55.6324 280.395 52.902 279.424L52.3176 281.071C55.0749 282.051 57.856 282.964 60.6592 283.806L61.1628 282.132ZM44.7853 276.312C42.1072 275.208 39.4545 274.039 36.8302 272.806L36.0875 274.388C38.7371 275.633 41.4151 276.812 44.1201 277.927L44.7853 276.312ZM29.054 268.919C26.4931 267.562 23.9655 266.144 21.4711 264.665L20.581 266.168C23.0976 267.66 25.6506 269.093 28.2353 270.463L29.054 268.919ZM14.1004 260.055C11.6804 258.46 9.2985 256.807 6.95615 255.099L5.92672 256.512C8.29124 258.235 10.6954 259.903 13.1391 261.514L14.1004 260.055ZM0.0541916 249.811C-2.20422 247.995 -4.4199 246.124 -6.58963 244.203L-7.74889 245.51C-5.55859 247.45 -3.32074 249.339 -1.04174 251.173L0.0541916 249.811ZM-12.9578 238.283C-15.0341 236.261 -17.0597 234.188 -19.0362 232.067L-20.3143 233.258C-18.3204 235.399 -16.2726 237.491 -14.1774 239.534L-12.9578 238.283ZM-24.8042 225.563C-26.6746 223.349 -28.4912 221.09 -30.2491 218.786L-31.6381 219.847C-29.8611 222.173 -28.0287 224.456 -26.1393 226.69L-24.8042 225.563ZM-35.3504 211.749C-36.9927 209.363 -38.5733 206.933 -40.0921 204.466L-41.5808 205.381C-40.0461 207.874 -38.4481 210.329 -36.7915 212.739L-35.3504 211.749ZM-44.4489 196.951C-45.8078 194.431 -47.0938 191.827 -48.2452 189.167L-49.8479 189.862C-48.6728 192.575 -47.3661 195.223 -45.9867 197.781L-44.4489 196.951ZM-51.24 181.071C-52.0841 178.288 -52.7319 175.483 -53.1247 172.686L-54.8557 172.929C-54.4471 175.828 -53.7787 178.722 -52.9124 181.577L-51.24 181.071ZM-53.4747 164.153C-53.2831 161.325 -52.7604 158.539 -51.8466 155.823L-53.5031 155.265C-54.4692 158.133 -55.0172 161.071 -55.2168 164.034L-53.4747 164.153ZM-48.0805 148.225C-46.5078 145.874 -44.6438 143.698 -42.5865 141.689L-43.8059 140.438C-45.9392 142.519 -47.8825 144.787 -49.5327 147.253L-48.0805 148.225ZM-35.9727 136.195C-35.6591 135.97 -35.344 135.749 -35.0273 135.53C-33.0365 134.155 -30.8589 133.044 -28.5149 132.16L-29.131 130.526C-31.5921 131.454 -33.8997 132.629 -36.0203 134.092C-36.345 134.317 -36.668 134.544 -36.9895 134.775L-35.9727 136.195ZM-20.2399 130.028C-17.5111 129.594 -14.6398 129.358 -11.6576 129.281L-11.7019 127.534C-14.749 127.613 -17.6964 127.855 -20.5154 128.304L-20.2399 130.028ZM-2.99767 129.45C-0.1707 129.616 2.72279 129.879 5.66062 130.212L5.85696 128.475C2.89378 128.14 -0.0297623 127.874 -2.89474 127.705L-2.99767 129.45ZM14.2983 131.341C17.157 131.758 20.0378 132.211 22.9218 132.675L23.1989 130.948C20.3102 130.484 17.4215 130.03 14.5501 129.613L14.2983 131.341ZM31.5516 134.072C34.4562 134.537 37.3449 134.99 40.2036 135.402L40.4538 133.672C37.6094 133.262 34.7286 132.812 31.8288 132.347L31.5516 134.072ZM48.9015 136.518C51.8884 136.845 54.8167 137.093 57.6643 137.231L57.7483 135.486C54.9435 135.35 52.05 135.104 49.0915 134.783L48.9015 136.52V136.518ZM66.4858 137.253C69.5693 137.093 72.5135 136.735 75.285 136.124L74.908 134.418C72.2521 135.004 69.4014 135.353 66.3954 135.508L66.4858 137.253ZM83.7105 133.124C86.3823 131.712 88.7674 129.884 90.793 127.57L89.4785 126.419C87.6001 128.563 85.3941 130.256 82.8933 131.579L83.7105 133.124ZM95.4793 119.91C96.6639 117.057 97.3481 114.137 97.6031 111.196L95.8625 111.044C95.6218 113.817 94.9788 116.559 93.8654 119.238L95.4793 119.91ZM97.1454 102.268C96.6243 99.3876 95.7676 96.5305 94.6463 93.7289L93.0245 94.3767C94.1078 97.0833 94.9282 99.8295 95.4255 102.579L97.1454 102.268ZM90.7138 85.788C89.2219 83.2572 87.5511 80.8072 85.7583 78.4664L84.3709 79.5291C86.1241 81.8176 87.757 84.2122 89.2093 86.6765L90.7138 85.788ZM80.0251 71.7514C77.9441 69.5563 75.7918 67.5132 73.6348 65.6619L72.496 66.9875C74.6071 68.7993 76.7167 70.8011 78.7566 72.9534L80.0251 71.7514ZM66.6061 60.2962L66.5808 60.2803C64.1545 58.6633 61.7044 57.0891 59.2306 55.5576L58.3105 57.0432C60.7669 58.5651 63.2011 60.1283 65.6115 61.7342L65.6353 61.75L66.6061 60.2962ZM51.7094 51.0598C49.1786 49.5996 46.6256 48.1805 44.0536 46.7964L43.227 48.3358C45.7831 49.7104 48.3202 51.1231 50.8352 52.5738L51.7094 51.0598ZM36.2823 42.7562C33.6738 41.4465 31.048 40.1716 28.4047 38.9283L27.6604 40.5105C30.291 41.7458 32.9041 43.0144 35.4967 44.3178L36.2823 42.7562ZM20.4353 35.3C17.7667 34.1233 15.0839 32.9766 12.3868 31.8585L11.7168 33.4723C14.4028 34.5857 17.0746 35.7276 19.7305 36.8996L20.4353 35.3ZM4.26696 28.5897C1.55243 27.527 -1.17484 26.4912 -3.91312 25.4792L-4.51963 27.1184C-1.79084 28.1272 0.926849 29.1598 3.63029 30.2162L4.26696 28.5897ZM-12.1454 22.5144C-14.8948 21.5484 -17.6552 20.6045 -20.422 19.6796L-20.9763 21.3361C-18.2158 22.2595 -15.4649 23.2002 -12.7234 24.1631L-12.1454 22.5144ZM-28.7366 16.9603C-31.5129 16.0718 -34.2956 15.2007 -37.083 14.3439L-37.5961 16.0148C-34.8134 16.87 -32.0387 17.7379 -29.2687 18.6248L-28.7366 16.9603ZM-45.4546 11.8163C-48.2483 10.9864 -51.0468 10.1692 -53.8469 9.36147L-54.3314 11.0402C-51.5345 11.8464 -48.7409 12.662 -45.9519 13.4903L-45.4546 11.8163ZM-62.2565 6.96687C-65.0645 6.17659 -67.8709 5.39421 -70.6788 4.61817L-71.1445 6.30171C-68.3396 7.07774 -65.5349 7.8585 -62.7301 8.64878L-62.2565 6.96687ZM-79.1075 2.30118C-81.9218 1.53148 -84.733 0.764947 -87.541 0L-88.0002 1.68667C-85.1923 2.45161 -82.3811 3.21656 -79.5684 3.98626L-79.1075 2.30118Z" fill="#C1E6FB"/>
<path d="M980.695 326.512C978.582 328.211 976.23 329.876 973.652 331.498L974.583 332.977C977.211 331.323 979.617 329.621 981.79 327.874L980.695 326.512ZM966.126 335.785C963.658 337.063 961.043 338.309 958.289 339.518L958.992 341.117C961.777 339.895 964.425 338.634 966.93 337.337L966.126 335.785ZM950.24 342.796C947.605 343.794 944.868 344.76 942.037 345.694L942.584 347.354C945.438 346.412 948.198 345.438 950.858 344.43L950.24 342.796ZM933.719 348.261C930.99 349.05 928.186 349.809 925.312 350.539L925.742 352.233C928.633 351.499 931.456 350.734 934.204 349.94L933.719 348.261ZM916.836 352.555C914.049 353.176 911.204 353.77 908.304 354.334L908.638 356.049C911.552 355.482 914.412 354.885 917.215 354.261L916.836 352.555ZM899.728 355.894C896.902 356.372 894.031 356.823 891.115 357.248L891.367 358.977C894.296 358.551 897.18 358.098 900.019 357.617L899.728 355.894ZM882.474 358.41C879.621 358.762 876.732 359.088 873.808 359.387L873.987 361.126C876.922 360.825 879.823 360.497 882.688 360.144L882.474 358.41ZM865.125 360.189C862.253 360.426 859.353 360.637 856.427 360.822L856.536 362.566C859.475 362.381 862.386 362.168 865.269 361.931L865.125 360.189ZM847.716 361.289C844.834 361.418 841.928 361.519 838.999 361.597L839.045 363.343C841.985 363.266 844.902 363.163 847.794 363.035L847.716 361.289ZM830.279 361.745C828.92 361.756 827.557 361.763 826.19 361.763C824.651 361.763 823.106 361.755 821.556 361.741L821.54 363.489C823.095 363.503 824.646 363.51 826.19 363.51C827.561 363.51 828.93 363.505 830.293 363.494L830.279 361.745ZM812.836 361.584C809.946 361.506 807.039 361.403 804.119 361.275L804.041 363.02C806.971 363.15 809.888 363.253 812.788 363.331L812.836 361.584ZM795.408 360.816C792.52 360.638 789.618 360.437 786.707 360.208L786.57 361.95C789.492 362.179 792.402 362.382 795.301 362.561L795.408 360.816ZM778.017 359.449C775.136 359.173 772.248 358.871 769.351 358.541L769.155 360.279C772.061 360.608 774.961 360.911 777.851 361.19L778.017 359.449ZM760.701 357.485C757.829 357.108 754.953 356.706 752.071 356.277L751.813 358.005C754.705 358.435 757.593 358.839 760.474 359.218L760.701 357.485ZM743.463 354.916C740.605 354.438 737.743 353.934 734.879 353.402L734.561 355.121C737.434 355.654 740.307 356.16 743.175 356.639L743.463 354.916ZM726.326 351.733C723.484 351.152 720.643 350.544 717.803 349.909L717.422 351.613C720.273 352.251 723.125 352.862 725.976 353.445L726.326 351.733ZM709.316 347.924C706.497 347.237 703.681 346.522 700.867 345.78L700.422 347.468C703.246 348.214 706.073 348.933 708.901 349.622L709.316 347.924ZM692.462 343.472C689.672 342.677 686.884 341.852 684.103 341L683.592 342.669C686.384 343.526 689.181 344.354 691.982 345.153L692.462 343.472ZM675.796 338.358C673.039 337.451 670.288 336.515 667.547 335.549L666.965 337.196C669.72 338.167 672.482 339.107 675.25 340.018L675.796 338.358ZM659.356 332.567C656.638 331.544 653.93 330.49 651.231 329.407L650.58 331.029C653.291 332.117 656.011 333.175 658.741 334.201L659.356 332.567ZM643.219 326.016C640.522 324.805 637.904 323.558 635.368 322.277L634.581 323.837C637.14 325.129 639.782 326.388 642.505 327.611L643.219 326.016ZM627.709 318.169C625.134 316.704 622.656 315.204 620.275 313.673L619.33 315.142C621.739 316.691 624.242 318.207 626.845 319.688L627.709 318.169ZM613.112 308.765C610.714 307.015 608.435 305.231 606.273 303.424L605.152 304.764C607.344 306.598 609.653 308.403 612.081 310.176L613.112 308.765ZM599.831 297.624C597.694 295.55 595.708 293.453 593.871 291.342L592.553 292.488C594.422 294.638 596.443 296.771 598.613 298.877L599.831 297.624ZM588.515 284.554C586.785 282.123 585.252 279.684 583.917 277.253L582.386 278.094C583.756 280.588 585.324 283.083 587.089 285.567L588.515 284.554ZM580.29 269.448C579.234 266.669 578.442 263.916 577.912 261.211L576.196 261.547C576.748 264.356 577.568 267.202 578.658 270.069L580.29 269.448ZM577.113 252.711C577.148 249.808 577.516 246.989 578.213 244.276L576.52 243.841C575.786 246.693 575.403 249.653 575.365 252.689L577.113 252.711ZM581.35 236.391C582.695 233.968 584.359 231.666 586.351 229.513L585.069 228.326C582.984 230.578 581.236 232.994 579.822 235.543L581.35 236.391ZM592.781 223.895C594.169 222.907 595.65 221.968 597.225 221.082C598.177 220.547 599.162 220.042 600.174 219.57L599.436 217.986C598.385 218.477 597.36 219.001 596.369 219.559C594.741 220.474 593.207 221.447 591.768 222.471L592.781 223.895ZM608.236 216.632C610.963 215.884 613.796 215.33 616.677 214.975L616.463 213.241C613.501 213.605 610.586 214.176 607.773 214.947L608.236 216.632ZM625.277 214.513C628.162 214.557 631.04 214.801 633.854 215.249L634.13 213.525C631.23 213.062 628.27 212.812 625.304 212.766L625.277 214.513ZM642.204 217.264C644.966 218.178 647.598 219.323 650.035 220.701L650.895 219.18C648.35 217.741 645.613 216.551 642.752 215.604L642.204 217.264ZM656.899 225.721C658.953 227.663 660.732 229.861 662.171 232.325L663.681 231.445C662.154 228.828 660.266 226.499 658.098 224.451L656.899 225.721ZM665.31 240.163C665.914 242.653 666.237 245.339 666.237 248.229L666.235 248.603L667.984 248.619L667.985 248.229C667.985 245.207 667.646 242.382 667.01 239.751L665.31 240.163ZM665.307 257.111C664.778 259.738 664.017 262.502 662.998 265.402L664.647 265.981C665.689 263.012 666.474 260.169 667.021 257.455L665.307 257.111ZM659.691 273.385L659.628 273.52C658.416 276.067 657.115 278.594 655.724 281.103L657.252 281.95C658.659 279.41 659.98 276.851 661.205 274.271L661.27 274.133L659.691 273.385ZM651.297 288.577C649.766 291.006 648.155 293.415 646.47 295.803L647.899 296.81C649.6 294.398 651.226 291.964 652.777 289.508L651.297 288.577ZM641.29 302.789C639.522 305.062 637.692 307.314 635.801 309.542L637.134 310.671C639.039 308.426 640.886 306.155 642.669 303.863L641.29 302.789ZM630.039 316.067C628.088 318.194 626.086 320.297 624.037 322.375L625.28 323.603C627.343 321.509 629.361 319.39 631.327 317.249L630.039 316.067ZM617.817 328.476C615.719 330.468 613.579 332.435 611.405 334.377L612.567 335.68C614.756 333.727 616.908 331.748 619.019 329.744L617.817 328.476ZM604.832 340.072C602.618 341.938 600.371 343.776 598.096 345.59L599.186 346.955C601.471 345.134 603.73 343.285 605.958 341.41L604.832 340.072ZM591.212 350.932C588.892 352.685 586.549 354.409 584.186 356.104L585.206 357.525C587.58 355.821 589.934 354.088 592.265 352.325L591.212 350.932ZM577.033 361.114C574.622 362.759 572.194 364.374 569.757 365.96L570.709 367.425C573.157 365.833 575.596 364.21 578.018 362.556L577.033 361.114ZM562.389 370.63C559.906 372.166 557.415 373.669 554.921 375.138L555.807 376.644C558.313 375.169 560.814 373.66 563.31 372.116L562.389 370.63ZM547.355 379.482C544.799 380.913 542.246 382.307 539.698 383.661L540.518 385.205C543.077 383.843 545.641 382.445 548.209 381.007L547.355 379.482ZM531.95 387.673C529.324 388.995 526.711 390.273 524.114 391.509L524.864 393.088C527.473 391.846 530.099 390.562 532.735 389.233L531.95 387.673ZM516.193 395.164C513.498 396.368 510.828 397.522 508.186 398.624L508.859 400.237C511.513 399.128 514.198 397.969 516.906 396.759L516.193 395.164ZM500.095 401.874C497.323 402.943 494.594 403.95 491.915 404.893L492.494 406.542C495.191 405.593 497.936 404.581 500.723 403.504L500.095 401.874ZM483.647 407.647C480.784 408.543 477.993 409.359 475.287 410.088L475.741 411.776C478.472 411.039 481.286 410.217 484.17 409.313L483.647 407.647Z" fill="#C1E6FB"/>
<path d="M139.535 293.488L139.926 293.888C139.927 293.888 146.001 287.956 152.377 281.695C158.76 275.428 165.419 268.857 166.656 267.508C167.537 266.548 167.941 265.467 167.939 264.456C167.939 263.45 167.546 262.527 166.894 261.856C166.244 261.182 165.326 260.76 164.304 260.761C163.379 260.76 162.386 261.106 161.447 261.856C160.538 262.583 158.606 264.404 156.126 266.814C148.698 274.041 136.538 286.416 134.403 288.771C133.681 289.565 133.347 290.479 133.348 291.346C133.363 293.377 135.067 295.094 137.124 295.108C138.063 295.109 139.059 294.726 139.924 293.891L139.926 293.888L139.535 293.488L139.147 293.082C138.456 293.741 137.766 293.982 137.124 293.985C136.423 293.986 135.756 293.679 135.263 293.188C134.772 292.697 134.47 292.034 134.471 291.346C134.473 290.757 134.68 290.138 135.235 289.524C136.619 287.995 142.507 281.961 148.462 275.987C151.441 272.999 154.441 270.02 156.908 267.619C159.373 265.221 161.325 263.385 162.146 262.735C162.923 262.117 163.66 261.882 164.304 261.882C165.719 261.882 166.813 263.034 166.818 264.456C166.816 265.172 166.542 265.967 165.828 266.751C164.654 268.034 157.961 274.641 151.592 280.894C148.404 284.025 145.291 287.072 142.976 289.337C140.661 291.603 139.147 293.082 139.143 293.085L139.147 293.082L139.535 293.488Z" fill="#C1E6FB"/>
<path d="M155.294 278.631C155.295 278.632 156.076 279.074 157.28 279.761C159.087 280.791 161.843 282.367 164.335 283.808C166.825 285.247 169.066 286.564 169.79 287.039C170.407 287.444 170.514 287.764 170.506 287.875C170.506 287.972 170.46 288.081 170.271 288.214C170.088 288.339 169.784 288.437 169.451 288.436L169.126 288.407C165.802 287.816 160.934 286.53 156.909 285.393C154.896 284.825 153.094 284.292 151.794 283.903C150.494 283.513 149.702 283.268 149.698 283.266L149.368 284.338C149.379 284.34 162.131 288.302 168.93 289.511C169.106 289.543 169.28 289.557 169.451 289.557C169.988 289.555 170.491 289.416 170.898 289.143C171.301 288.877 171.629 288.428 171.627 287.875C171.619 287.2 171.174 286.603 170.404 286.1C169.362 285.417 165.745 283.32 162.359 281.374C158.978 279.432 155.848 277.655 155.848 277.655L155.294 278.631Z" fill="#C1E6FB"/>
<path d="M150.619 273.118C150.619 273.118 148.842 269.988 146.9 266.607C144.954 263.219 142.857 259.603 142.173 258.56C141.669 257.792 141.073 257.345 140.397 257.337C139.846 257.337 139.396 257.665 139.13 258.067C138.858 258.474 138.718 258.978 138.717 259.515C138.717 259.686 138.731 259.858 138.763 260.033V260.034C139.973 266.833 143.932 279.586 143.935 279.598L145.006 279.266C145.006 279.264 144.76 278.471 144.371 277.17C143.204 273.276 140.752 264.828 139.867 259.838V259.839L139.838 259.515C139.837 259.181 139.935 258.878 140.06 258.694C140.193 258.506 140.302 258.46 140.397 258.46C140.51 258.452 140.83 258.558 141.235 259.176C141.872 260.145 143.989 263.791 145.926 267.164C146.897 268.854 147.827 270.481 148.514 271.686C149.2 272.89 149.643 273.669 149.645 273.672L150.619 273.118Z" fill="#C1E6FB"/>
<path d="M163.749 270.072C163.752 270.074 164.861 270.33 166.101 270.62C167.339 270.91 168.709 271.231 169.21 271.357C169.406 271.406 169.603 271.429 169.794 271.429C170.301 271.429 170.77 271.268 171.132 270.978C171.494 270.693 171.755 270.251 171.755 269.744C171.755 269.147 171.399 268.577 170.779 268.14C168.774 266.707 167.305 265.704 167.303 265.703L166.67 266.629C166.674 266.632 168.131 267.627 170.128 269.054C170.561 269.367 170.632 269.61 170.632 269.744C170.632 269.862 170.578 269.982 170.431 270.102C170.287 270.219 170.057 270.308 169.794 270.308L169.482 270.269C168.448 270.01 164.006 268.981 164.002 268.979L163.749 270.072Z" fill="#C1E6FB"/>
<path d="M159.496 264.72C159.494 264.719 158.465 260.276 158.207 259.242L158.167 258.932C158.167 258.667 158.256 258.438 158.373 258.294C158.494 258.146 158.614 258.092 158.731 258.092C158.866 258.092 159.108 258.165 159.423 258.596C160.849 260.593 161.843 262.05 161.845 262.055L162.771 261.422C162.77 261.42 161.767 259.95 160.335 257.945C159.898 257.326 159.328 256.97 158.731 256.971C158.226 256.97 157.782 257.231 157.497 257.592C157.208 257.955 157.048 258.425 157.046 258.932C157.046 259.122 157.07 259.318 157.119 259.515C157.244 260.015 157.565 261.385 157.855 262.624C158.145 263.862 158.402 264.972 158.403 264.974L159.496 264.72Z" fill="#C1E6FB"/>
<path d="M831.206 321.621L830.761 322.269C830.761 322.269 840.556 329.011 850.887 336.078C856.052 339.611 861.351 343.227 865.625 346.122C869.906 349.02 873.142 351.183 874.249 351.858C875.419 352.572 876.609 352.9 877.72 352.9C879.2 352.9 880.522 352.319 881.464 351.389C882.408 350.461 882.982 349.178 882.98 347.791C882.985 346.217 882.228 344.543 880.604 343.173C879.361 342.12 876.335 339.958 872.35 337.202C860.41 328.951 840.113 315.589 836.298 313.292C835.343 312.716 834.356 312.447 833.422 312.448C831.953 312.448 830.647 313.102 829.725 314.081C828.802 315.063 828.235 316.379 828.233 317.774C828.224 319.379 829.024 321.064 830.756 322.264L830.759 322.267L830.761 322.269L831.206 321.621L831.657 320.978C830.294 320.012 829.814 318.877 829.804 317.774C829.803 316.813 830.205 315.86 830.869 315.16C831.532 314.458 832.427 314.019 833.422 314.019C834.058 314.021 834.75 314.197 835.488 314.639C837.964 316.129 847.849 322.587 857.672 329.152C862.585 332.438 867.489 335.753 871.457 338.494C875.418 341.231 878.469 343.418 879.588 344.37C880.921 345.509 881.406 346.716 881.409 347.791C881.407 349.688 879.847 351.326 877.72 351.329C876.917 351.327 876.019 351.096 875.064 350.517C874.037 349.891 870.774 347.71 866.507 344.82C860.1 340.482 851.384 334.521 844.273 329.643C840.718 327.204 837.561 325.037 835.295 323.479C833.029 321.922 831.656 320.977 831.653 320.974L831.657 320.978L831.206 321.621Z" fill="#C1E6FB"/>
<path d="M855.888 339.256C855.887 339.26 855.489 340.451 854.871 342.292C853.945 345.053 852.526 349.269 851.219 353.084C849.916 356.895 848.714 360.33 848.258 361.453C848.041 361.989 847.803 362.316 847.619 362.48C847.431 362.647 847.322 362.667 847.228 362.67C847.095 362.677 846.85 362.571 846.612 362.244C846.381 361.926 846.205 361.437 846.197 360.913C846.189 360.504 846.186 360.079 846.186 359.639C846.186 354.757 846.639 348.041 847.094 342.559C847.322 339.817 847.548 337.383 847.719 335.634C847.889 333.886 848.003 332.826 848.003 332.825L846.441 332.657C846.44 332.671 844.617 349.704 844.615 359.639C844.615 360.087 844.618 360.523 844.626 360.941C844.644 361.782 844.903 362.556 845.339 363.163C845.768 363.76 846.417 364.235 847.228 364.242C847.745 364.245 848.264 364.023 848.677 363.643C849.094 363.261 849.431 362.734 849.713 362.045H849.712C850.37 360.426 852.272 354.89 854.029 349.708C855.784 344.535 857.378 339.755 857.378 339.754L855.888 339.256Z" fill="#C1E6FB"/>
<path d="M862.198 331.341C862.199 331.339 866.018 328.051 870.139 324.466C874.266 320.875 878.669 317.016 879.917 315.793C880.71 315.012 881.146 314.23 881.154 313.414C881.162 312.705 880.764 312.082 880.248 311.737C879.73 311.384 879.104 311.227 878.45 311.226C877.964 311.226 877.459 311.316 876.968 311.506C867.952 315.008 851.5 323.903 851.484 323.91L852.231 325.292C852.233 325.291 853.256 324.738 854.938 323.851C859.974 321.192 870.918 315.536 877.536 312.969C877.842 312.85 878.16 312.795 878.45 312.795C878.841 312.793 879.174 312.901 879.353 313.029C879.535 313.169 879.575 313.25 879.583 313.414C879.591 313.604 879.448 314.057 878.818 314.672C877.658 315.809 873.219 319.705 869.108 323.281C867.049 325.072 865.064 326.789 863.596 328.058C862.127 329.328 861.175 330.148 861.173 330.15L862.198 331.341Z" fill="#C1E6FB"/>
<path d="M876.139 341.265C876.143 341.263 881.968 338.647 883.319 338.01C883.57 337.893 883.822 337.842 884.052 337.841C884.377 337.841 884.654 337.945 884.818 338.08C884.985 338.219 885.046 338.344 885.051 338.529C885.053 338.719 884.959 339.055 884.535 339.507C883.357 340.756 882.332 341.825 881.602 342.579C880.873 343.333 880.441 343.772 880.439 343.773L881.561 344.875C881.562 344.872 883.309 343.097 885.678 340.585C886.288 339.941 886.622 339.236 886.622 338.529C886.627 337.842 886.283 337.229 885.799 336.851C885.314 336.466 884.7 336.271 884.052 336.271C883.591 336.271 883.111 336.372 882.65 336.588C881.996 336.897 880.2 337.711 878.577 338.442C876.954 339.176 875.498 339.83 875.495 339.831L876.139 341.265Z" fill="#C1E6FB"/>
<path d="M499.022 294.609L498.962 295.166L528.898 298.418L528.494 297.523C528.474 297.48 527.523 295.379 525.275 293.261C523.03 291.145 519.456 289.021 514.301 289.025C510.159 289.025 505.023 290.387 498.736 294.126L497.293 294.986L498.962 295.166L499.022 294.609L499.309 295.09C505.471 291.426 510.41 290.146 514.301 290.146C519.141 290.149 522.406 292.11 524.505 294.078C525.552 295.063 526.299 296.05 526.782 296.785C527.023 297.154 527.199 297.46 527.311 297.67L527.436 297.911L527.473 297.985L527.983 297.754L528.045 297.197L499.083 294.051L499.022 294.609Z" fill="#C1E6FB"/>
<path d="M544.539 350.681L545.096 350.626C545.095 350.61 544.266 342.193 541.775 331.342C539.282 320.492 535.139 307.211 528.446 297.438L527.982 297.754L527.674 298.223C534.499 302.71 540.111 312.923 544.007 323.21C547.914 333.485 550.148 343.857 550.424 348.562L550.985 348.527L550.807 347.997C546.735 349.356 544.36 350.149 544.36 350.149L544.539 350.681L544.716 351.213C544.716 351.213 547.09 350.42 551.162 349.06L551.571 348.923L551.544 348.494C551.247 343.585 548.999 333.202 545.055 322.811C541.102 312.429 535.5 302.064 528.293 297.287L525.9 295.707L527.52 298.071C534.077 307.632 538.21 320.815 540.682 331.594C541.919 336.984 542.744 341.774 543.259 345.213C543.517 346.934 543.698 348.317 543.813 349.269C543.929 350.219 543.98 350.735 543.98 350.737L544.049 351.437L544.716 351.213L544.539 350.681Z" fill="#C1E6FB"/>
<path d="M527.983 297.754L528.407 297.387L528.371 297.344C527.975 296.877 524.625 292.647 524.636 287.195C524.641 283.998 525.75 280.365 529.311 276.667L528.908 276.277L528.347 276.299C528.404 277.788 528.429 279.267 528.429 280.71C528.429 285.319 528.177 289.566 527.927 292.658C527.802 294.205 527.677 295.463 527.584 296.334C527.489 297.203 527.427 297.681 527.427 297.683L527.983 297.754L528.54 297.825C528.542 297.811 529.551 290.008 529.551 280.71C529.551 279.255 529.525 277.761 529.468 276.256L529.418 274.94L528.504 275.888C524.76 279.763 523.51 283.732 523.515 287.195C523.528 293.503 527.528 298.074 527.56 298.122L528.38 299.066L528.54 297.825L527.983 297.754Z" fill="#C1E6FB"/>
<path d="M545.47 273.757L545.017 273.428L527.53 297.423L527.983 297.754L528.543 297.783C528.543 297.781 528.559 297.458 528.621 296.864C528.833 294.786 529.598 289.522 532.056 284.611C534.525 279.693 538.605 275.178 545.54 274.315L545.47 273.757L545.402 273.202C541.183 273.721 537.914 275.542 535.436 277.961C531.714 281.592 529.729 286.529 528.654 290.551C527.582 294.577 527.425 297.7 527.424 297.726L527.328 299.606L546.687 273.043L545.402 273.202L545.47 273.757Z" fill="#C1E6FB"/>
<path d="M527.983 297.754L528.008 297.194C528 297.194 527.81 297.186 527.469 297.186C525.886 297.187 521.066 297.357 516.268 299.343C511.475 301.316 506.665 305.201 505.398 312.499L505.181 313.739L506.249 313.072C518.021 305.698 528.307 298.213 528.313 298.207L529.611 297.265L528.008 297.194L527.983 297.754L527.653 297.301C527.651 297.303 527.013 297.765 525.868 298.581C522.431 301.026 514.453 306.609 505.653 312.12L505.951 312.595L506.504 312.692C507.712 305.83 512.12 302.29 516.697 300.378C521.269 298.481 525.97 298.305 527.469 298.307C527.792 298.307 527.959 298.315 527.959 298.315L527.983 297.754Z" fill="#C1E6FB"/>
<path d="M523.773 320.533L524.326 320.635L528.916 295.797L527.557 297.39C527.546 297.404 525.541 299.755 523.528 303.02C521.521 306.291 519.478 310.458 519.467 314.238C519.448 316.929 520.593 319.475 523.507 321.027L524.185 321.392L524.326 320.635L523.773 320.533L524.039 320.039C521.481 318.641 520.609 316.644 520.588 314.238C520.579 310.866 522.512 306.791 524.483 303.608C525.466 302.015 526.45 300.638 527.188 299.663C527.557 299.175 527.864 298.787 528.078 298.523C528.292 298.258 528.41 298.119 528.41 298.119L527.983 297.754L527.432 297.653L523.222 320.432L523.773 320.533Z" fill="#C1E6FB"/>
<path d="M551.343 297.906L551.346 297.346L527.988 297.194L527.983 297.754L528.322 298.203C528.322 298.203 528.437 298.114 528.666 297.952C529.461 297.388 531.562 295.961 534.196 294.683C536.828 293.404 539.997 292.286 542.875 292.289C544.539 292.289 546.096 292.653 547.447 293.546C548.796 294.439 549.967 295.873 550.819 298.106L551.343 297.906L551.867 297.707C550.955 295.303 549.636 293.646 548.065 292.61C546.495 291.573 544.701 291.166 542.875 291.167C539.261 291.172 535.482 292.72 532.579 294.245C529.679 295.773 527.661 297.295 527.646 297.308L526.323 298.305L552.159 298.473L551.867 297.707L551.343 297.906Z" fill="#C1E6FB"/>
<path d="M550.531 346.069C551.606 345.914 552.734 345.83 553.917 345.83C556.991 345.83 560.434 346.397 564.268 347.786L564.46 347.259L564.282 346.728C555.238 349.75 532.381 357.388 532.381 357.388L532.56 357.921L533.056 358.182L533.092 358.114C533.49 357.392 537.117 351.196 544.291 347.907L543.822 346.887C535.793 350.586 532.096 357.609 532.064 357.658L531.41 358.896L532.738 358.451C532.738 358.451 538.452 356.543 545.297 354.254C552.14 351.967 560.116 349.303 564.637 347.791L566.166 347.281L564.65 346.731C560.706 345.303 557.13 344.709 553.917 344.709C552.682 344.709 551.5 344.798 550.371 344.959L550.531 346.069Z" fill="#C1E6FB"/>
<path d="M18.2216 230.377L18.7062 230.094C16.8358 226.907 15.9489 223.42 15.9489 219.975C15.9489 213.095 19.4917 206.401 25.852 202.67C29.0401 200.801 32.5275 199.912 35.9722 199.912C42.8519 199.914 49.5464 203.455 53.2777 209.817C55.1465 213.005 56.0349 216.492 56.0349 219.937C56.0334 226.815 52.4921 233.51 46.1302 237.241C42.9422 239.11 39.4548 239.998 36.0101 239.998C29.132 239.997 22.4375 236.456 18.7062 230.094L18.2216 230.377L17.7385 230.661C21.6789 237.377 28.7503 241.12 36.0101 241.12C39.648 241.12 43.3349 240.18 46.6972 238.209C53.4139 234.268 57.1562 227.197 57.1562 219.937C57.1562 216.299 56.2171 212.612 54.2437 209.25C50.305 202.533 43.2336 198.791 35.9722 198.791C32.3359 198.791 28.6474 199.73 25.2851 201.703C18.57 205.642 14.826 212.714 14.8276 219.975C14.8276 223.611 15.7668 227.298 17.7385 230.661L18.2216 230.377Z" fill="#C1E6FB"/>
<path d="M23.0986 227.517L23.5832 227.232C22.2418 224.945 21.6036 222.443 21.6036 219.969C21.6052 215.031 24.1471 210.226 28.713 207.548C31.0015 206.206 33.5038 205.57 35.976 205.57C40.9141 205.571 45.7192 208.111 48.3973 212.679C49.7403 214.967 50.377 217.47 50.377 219.942C50.377 224.88 47.8351 229.685 43.2676 232.363C40.9791 233.705 38.4768 234.341 36.0045 234.341C31.0664 234.341 26.2613 231.799 23.5832 227.232L23.0986 227.517L22.6156 227.8C25.5028 232.721 30.6848 235.464 36.0045 235.463C38.67 235.464 41.3718 234.775 43.8361 233.331C48.7568 230.444 51.4999 225.262 51.4983 219.942C51.4983 217.277 50.8109 214.575 49.365 212.112C46.4794 207.191 41.2958 204.447 35.976 204.448C33.3122 204.448 30.6087 205.136 28.146 206.582C23.2253 209.467 20.4823 214.649 20.4823 219.969C20.4823 222.634 21.1712 225.336 22.6156 227.8L23.0986 227.517Z" fill="#C1E6FB"/>
<path d="M34.0351 221.103L34.5181 220.819C34.3597 220.547 34.2837 220.252 34.2837 219.958C34.2853 219.37 34.5846 218.802 35.1279 218.483C35.4003 218.323 35.6948 218.249 35.9894 218.249C36.577 218.249 37.1455 218.55 37.4623 219.092V219.093C37.6222 219.366 37.6983 219.66 37.6983 219.955C37.6967 220.541 37.3974 221.111 36.8558 221.428C36.5818 221.587 36.2871 221.662 35.9941 221.662C35.4066 221.662 34.8364 221.361 34.5181 220.818V220.819L34.0351 221.103L33.552 221.386C34.0778 222.283 35.0249 222.785 35.9941 222.783C36.4788 222.785 36.9745 222.658 37.4227 222.395C38.3191 221.869 38.8196 220.922 38.8196 219.955C38.8196 219.468 38.6929 218.973 38.43 218.525V218.526C37.9042 217.628 36.9587 217.126 35.9894 217.128C35.5032 217.128 35.0091 217.253 34.5609 217.516C33.6629 218.043 33.1624 218.989 33.1624 219.958C33.1624 220.444 33.2892 220.938 33.5505 221.386H33.552L34.0351 221.103Z" fill="#C1E6FB"/>
<path d="M35.0498 222.707L41.9122 231.293C42.0864 231.51 42.3936 231.567 42.6344 231.426C42.8751 231.285 42.9749 230.99 42.8704 230.73L38.6687 220.408C38.5531 220.121 38.2253 219.983 37.9386 220.1C37.6519 220.216 37.5141 220.544 37.6297 220.83L40.3728 227.571L35.9257 222.007C35.7325 221.765 35.3808 221.725 35.1385 221.919C34.8962 222.112 34.8566 222.465 35.0498 222.707Z" fill="#C1E6FB"/>
<path d="M34.234 219.076L31.6113 212.633L35.9793 218.097C36.1725 218.338 36.5257 218.377 36.768 218.184C37.0087 217.991 37.0484 217.638 36.8552 217.397L30.072 208.911C29.8978 208.693 29.5905 208.636 29.3498 208.777C29.1091 208.919 29.0093 209.214 29.1154 209.472L33.1967 219.499C33.3139 219.785 33.6401 219.923 33.9268 219.807C34.2135 219.69 34.3512 219.362 34.234 219.076Z" fill="#C1E6FB"/>
<path d="M545.201 232.037L544.986 231.519C542.471 232.563 539.867 233.057 537.306 233.057C529.449 233.057 521.993 228.409 518.792 220.701C517.747 218.186 517.253 215.582 517.253 213.021C517.253 205.164 521.903 197.708 529.609 194.507C532.124 193.462 534.728 192.968 537.289 192.968C545.146 192.968 552.604 197.616 555.804 205.324C556.848 207.839 557.342 210.443 557.342 213.004C557.342 220.861 552.694 228.317 544.986 231.519L545.201 232.037L545.417 232.553C553.554 229.172 558.465 221.299 558.463 213.004C558.463 210.299 557.941 207.548 556.838 204.895C553.459 196.756 545.586 191.846 537.289 191.846C534.584 191.846 531.833 192.369 529.18 193.471C521.041 196.853 516.132 204.725 516.132 213.021C516.132 215.726 516.654 218.479 517.756 221.131C521.138 229.269 529.011 234.18 537.306 234.178C540.011 234.178 542.764 233.656 545.417 232.553L545.201 232.037Z" fill="#C1E6FB"/>
<path d="M543.031 226.814L542.816 226.296C541.01 227.045 539.142 227.4 537.303 227.4C531.665 227.4 526.312 224.063 524.014 218.531C523.265 216.725 522.91 214.856 522.91 213.019C522.91 207.38 526.247 202.027 531.779 199.729C533.584 198.979 535.453 198.625 537.292 198.625C542.93 198.626 548.283 201.962 550.581 207.495C551.33 209.301 551.685 211.168 551.685 213.007C551.685 218.646 548.348 223.998 542.816 226.296L543.031 226.814L543.247 227.332C549.209 224.853 552.808 219.085 552.806 213.007C552.806 211.024 552.423 209.008 551.617 207.064C549.138 201.102 543.37 197.503 537.292 197.503C535.309 197.503 533.291 197.887 531.348 198.694C525.387 201.171 521.789 206.941 521.789 213.019C521.789 215.001 522.172 217.018 522.98 218.962C525.457 224.924 531.225 228.523 537.303 228.521C539.286 228.521 541.303 228.138 543.247 227.332L543.031 226.814Z" fill="#C1E6FB"/>
<path d="M538.168 215.107L537.953 214.589C537.738 214.678 537.517 214.719 537.299 214.72C536.631 214.719 535.994 214.324 535.721 213.667C535.633 213.452 535.592 213.232 535.592 213.015C535.592 212.345 535.988 211.71 536.645 211.436C536.859 211.347 537.079 211.306 537.297 211.306C537.966 211.306 538.602 211.702 538.875 212.357C538.963 212.573 539.006 212.795 539.006 213.012C539.005 213.681 538.61 214.317 537.953 214.589L538.168 215.107L538.382 215.625C539.47 215.172 540.127 214.12 540.127 213.012C540.127 212.65 540.056 212.281 539.91 211.928C539.458 210.84 538.406 210.183 537.297 210.185C536.935 210.185 536.567 210.254 536.214 210.402C535.126 210.855 534.469 211.905 534.47 213.015C534.47 213.376 534.54 213.745 534.687 214.098C535.139 215.184 536.19 215.842 537.299 215.842C537.662 215.842 538.029 215.77 538.382 215.625L538.168 215.107Z" fill="#C1E6FB"/>
<path d="M539.896 214.32L549.336 208.691C549.575 208.547 549.674 208.253 549.566 207.994C549.46 207.736 549.181 207.597 548.91 207.667L538.111 210.422C537.81 210.498 537.629 210.804 537.705 211.103C537.783 211.404 538.089 211.585 538.388 211.509L545.439 209.71L539.321 213.357C539.055 213.515 538.967 213.859 539.126 214.125C539.284 214.391 539.629 214.478 539.896 214.32Z" fill="#C1E6FB"/>
<path d="M536.188 214.633L529.446 216.353L535.453 212.771C535.719 212.612 535.806 212.267 535.648 212.001C535.49 211.737 535.146 211.649 534.88 211.808L525.549 217.37C525.309 217.514 525.211 217.81 525.319 218.067C525.425 218.325 525.704 218.464 525.975 218.395L536.465 215.72C536.765 215.642 536.945 215.336 536.869 215.037C536.793 214.738 536.487 214.556 536.188 214.633Z" fill="#C1E6FB"/>
<path d="M389.247 289.706H390.435C390.419 288.173 391.201 285.707 392.451 283.036C394.316 279.011 397.164 274.437 399.538 270.894C400.724 269.122 401.795 267.603 402.566 266.529C402.951 265.992 403.263 265.568 403.477 265.276C403.69 264.987 403.806 264.835 403.806 264.835L402.857 264.119L401.909 264.835C401.909 264.835 402.115 265.109 402.484 265.612C403.773 267.373 407.012 271.908 409.91 276.784C411.359 279.221 412.721 281.746 413.708 284.028C414.699 286.304 415.29 288.367 415.279 289.706C415.279 293.139 413.891 296.237 411.641 298.489C409.389 300.74 406.291 302.127 402.857 302.127C399.422 302.127 396.324 300.74 394.072 298.489C391.824 296.237 390.435 293.139 390.435 289.706H389.247H388.059C388.059 297.878 394.684 304.503 402.857 304.503C411.03 304.503 417.654 297.878 417.654 289.706C417.64 287.48 416.72 284.867 415.418 282.037C411.498 273.601 403.827 263.441 403.806 263.404C403.581 263.107 403.23 262.931 402.857 262.931C402.484 262.931 402.132 263.107 401.909 263.404C401.896 263.422 398.478 267.958 395.043 273.466C393.326 276.22 391.603 279.216 390.295 282.037C388.993 284.867 388.073 287.48 388.059 289.706H389.247Z" fill="#C1E6FB"/>
<path d="M396.802 290.297H397.989C397.994 287.609 400.17 285.435 402.858 285.43C405.544 285.435 407.72 287.609 407.725 290.297C407.72 292.986 405.544 295.16 402.858 295.165C400.17 295.16 397.994 292.986 397.989 290.297H396.802H395.614C395.615 294.299 398.857 297.541 402.858 297.541C406.858 297.541 410.099 294.299 410.1 290.297C410.099 286.296 406.858 283.054 402.858 283.054C398.857 283.054 395.615 286.296 395.614 290.297H396.802Z" fill="#C1E6FB"/>
<path d="M399.164 257.244C399.164 255.205 400.816 253.552 402.854 253.552C404.893 253.552 406.546 255.205 406.546 257.244C406.546 259.282 404.893 260.935 402.854 260.935C400.816 260.935 399.164 259.282 399.164 257.244Z" fill="#C1E6FB"/>
<path d="M264.262 264.263C264.225 264.268 260.986 264.648 255.575 266.1L256.028 267.787C258.687 267.074 260.804 266.626 262.253 266.357C262.979 266.222 263.536 266.132 263.91 266.076C264.097 266.048 264.238 266.029 264.331 266.016L264.464 265.999L264.262 264.263ZM247.165 268.729C244.638 269.627 241.894 270.699 238.984 271.976L239.685 273.575C242.556 272.318 245.26 271.262 247.75 270.375L247.165 268.729ZM231.051 275.777C228.569 277.071 226.008 278.506 223.39 280.096L224.298 281.589C226.881 280.02 229.408 278.604 231.858 277.327L231.051 275.777ZM216.026 284.901C213.701 286.526 211.349 288.276 208.984 290.16L210.072 291.527C212.408 289.666 214.732 287.937 217.028 286.332L216.026 284.901ZM202.284 295.848C200.166 297.759 198.049 299.783 195.942 301.929L197.189 303.153C199.271 301.033 201.363 299.032 203.454 297.145L202.284 295.848ZM189.973 308.373C189.558 308.847 189.146 309.325 188.735 309.808L190.063 310.942C190.47 310.464 190.879 309.992 191.288 309.523L189.973 308.373Z" fill="#C1E6FB"/>
<path d="M339.35 275.91C341.317 277.877 342.998 280.181 344.354 282.715L345.895 281.892C344.463 279.215 342.682 276.771 340.585 274.673L339.35 275.91ZM347.341 290.658C347.946 293.212 348.261 295.862 348.261 298.529C348.261 298.72 348.26 298.914 348.256 299.105L350.003 299.135C350.006 298.933 350.008 298.73 350.008 298.529C350.008 295.724 349.677 292.941 349.042 290.255L347.341 290.659V290.658ZM347.026 307.501C346.264 310.185 345.14 312.797 343.626 315.256L345.113 316.172C346.715 313.57 347.903 310.809 348.706 307.979L347.026 307.501ZM338.233 321.784C336.25 323.612 333.949 325.269 331.306 326.704L332.139 328.24C334.904 326.738 337.325 324.996 339.416 323.07L338.233 321.784Z" fill="#C1E6FB"/>
<path d="M59.5474 356.177C59.5474 356.177 59.4745 355.985 59.3352 355.61C58.9202 354.484 57.9367 351.746 56.7584 347.937L55.0891 348.453C56.6745 353.58 57.9114 356.792 57.9177 356.806L59.5474 356.177ZM54.3828 339.562C53.7002 336.917 53.0287 334.063 52.4269 331.087L50.7148 331.434C51.323 334.445 52.0008 337.327 52.6913 339.999L54.3828 339.562ZM50.9714 322.526C50.5834 319.665 50.2967 316.769 50.1542 313.899L48.4089 313.986C48.553 316.913 48.8461 319.859 49.2388 322.762L50.9698 322.526H50.9714ZM50.2128 305.269C50.2445 304.813 50.2825 304.36 50.3252 303.91L48.5863 303.744C48.542 304.21 48.504 304.677 48.4707 305.146L50.2128 305.269Z" fill="#C1E6FB"/>
<path d="M107.894 113.504C108.201 111.602 108.352 109.614 108.352 107.562C108.352 106.586 108.319 105.596 108.25 104.594L106.508 104.711C106.573 105.677 106.605 106.627 106.605 107.562C106.605 109.529 106.461 111.424 106.169 113.225L107.894 113.504ZM106.89 95.826C106.226 93.0386 105.341 90.2085 104.245 87.38L102.615 88.0119C103.684 90.7707 104.546 93.5249 105.191 96.2315L106.89 95.826ZM100.555 79.3488C99.1915 76.7895 97.6568 74.2634 95.959 71.8054L94.521 72.7985C96.1807 75.201 97.6806 77.67 99.0141 80.1708L100.555 79.3488ZM90.5363 64.8338C88.612 62.6324 86.5453 60.5229 84.3423 58.5337L83.1719 59.8308C85.3226 61.7709 87.3403 63.8329 89.2202 65.9836L90.5363 64.8338ZM77.4277 53.027C76.8195 52.6026 76.205 52.1877 75.581 51.7822L74.6276 53.2456C75.2358 53.6415 75.836 54.0454 76.4283 54.4587L77.4277 53.027Z" fill="#C1E6FB"/>
<path d="M665.411 291.861C667.036 289.62 668.658 287.132 670.216 284.462L668.707 283.581C667.177 286.204 665.586 288.645 663.996 290.835L665.411 291.861ZM674.315 276.657C675.55 274.025 676.691 271.295 677.69 268.509L676.045 267.92C675.066 270.649 673.948 273.33 672.733 275.914L674.315 276.657ZM680.219 260.045C680.91 257.127 681.407 254.198 681.659 251.305L679.918 251.153C679.675 253.95 679.193 256.797 678.52 259.642L680.219 260.045ZM681.596 242.409C681.255 239.389 680.558 236.47 679.439 233.724L677.82 234.384C678.873 236.962 679.535 239.723 679.86 242.604L681.596 242.409Z" fill="#C1E6FB"/>
<path d="M251.138 289.994H251.699C251.701 289.12 252.409 288.412 253.283 288.41C254.159 288.412 254.867 289.12 254.868 289.994C254.867 290.868 254.159 291.578 253.283 291.578C252.409 291.578 251.701 290.868 251.699 289.994H251.138H250.578C250.578 291.489 251.789 292.701 253.283 292.701C254.778 292.701 255.99 291.489 255.99 289.994C255.99 288.499 254.778 287.289 253.283 287.289C251.789 287.289 250.578 288.499 250.578 289.994H251.138Z" fill="#C1E6FB"/>
<path d="M229.324 305.371H229.887C229.887 303.647 230.583 302.094 231.711 300.963C232.842 299.834 234.395 299.138 236.119 299.138C237.842 299.138 239.397 299.834 240.526 300.963C241.655 302.094 242.352 303.647 242.352 305.371C242.352 307.094 241.655 308.649 240.526 309.778C239.397 310.907 237.842 311.604 236.119 311.604C234.397 311.604 232.842 310.907 231.711 309.778C230.583 308.649 229.887 307.094 229.887 305.371H229.324H228.764C228.764 309.433 232.058 312.725 236.119 312.725C240.181 312.725 243.474 309.433 243.475 305.371C243.474 301.308 240.181 298.016 236.119 298.016C232.058 298.016 228.764 301.308 228.764 305.371H229.324Z" fill="#C1E6FB"/>
<path d="M473.269 265.281H473.83C473.833 263.582 475.209 262.206 476.909 262.204C478.609 262.206 479.984 263.582 479.987 265.281C479.984 266.982 478.609 268.357 476.909 268.36C475.209 268.357 473.833 266.982 473.83 265.281H473.269H472.708C472.708 267.602 474.588 269.481 476.909 269.481C479.229 269.481 481.109 267.602 481.109 265.281C481.109 262.961 479.229 261.081 476.909 261.081C474.588 261.081 472.708 262.961 472.708 265.281H473.269Z" fill="#C1E6FB"/>
<path d="M485.228 238.247H485.789C485.793 235.972 487.632 234.132 489.906 234.127C492.181 234.132 494.021 235.972 494.024 238.247C494.021 240.519 492.181 242.36 489.906 242.364C487.632 242.36 485.793 240.521 485.789 238.247H485.228H484.667C484.667 241.14 487.013 243.486 489.906 243.486C492.801 243.486 495.145 241.14 495.147 238.247C495.147 235.352 492.801 233.006 489.906 233.006C487.013 233.006 484.667 235.352 484.667 238.247H485.228Z" fill="#C1E6FB"/>
<path d="M77.621 242.925H78.1816C78.1848 241.512 79.3282 240.371 80.7409 240.367C82.152 240.371 83.2955 241.512 83.2987 242.925C83.2955 244.338 82.152 245.481 80.7409 245.484C79.3282 245.481 78.1848 244.338 78.1816 242.925H77.621H77.0603C77.0603 244.959 78.7074 246.606 80.7409 246.606C82.7728 246.606 84.4199 244.959 84.4199 242.925C84.4199 240.893 82.7728 239.246 80.7409 239.246C78.7074 239.246 77.0603 240.893 77.0603 242.925H77.621Z" fill="#C1E6FB"/>
<path d="M79.7007 311.032H80.2613C80.2613 309.32 80.955 307.775 82.0763 306.65C83.2007 305.529 84.7465 304.835 86.4585 304.835C88.1721 304.835 89.7194 305.529 90.8423 306.65C91.9636 307.775 92.6573 309.32 92.6573 311.032C92.6573 312.746 91.9636 314.293 90.8423 315.416C89.7194 316.539 88.1721 317.231 86.4585 317.233C84.7465 317.231 83.2007 316.539 82.0763 315.416C80.955 314.293 80.2613 312.746 80.2613 311.032H79.7007H79.14C79.14 315.076 82.4168 318.352 86.4585 318.354C90.5034 318.352 93.7786 315.076 93.7786 311.032C93.7786 306.991 90.5018 303.714 86.4585 303.714C82.4168 303.714 79.14 306.991 79.14 311.032H79.7007Z" fill="#C1E6FB"/>
<path d="M52.6649 107.23H53.2271C53.2287 106.104 54.1409 105.194 55.2654 105.191C56.3914 105.194 57.302 106.104 57.3052 107.23C57.302 108.355 56.3914 109.267 55.2654 109.269C54.1409 109.267 53.2287 108.355 53.2271 107.23H52.6649H52.1042C52.1058 108.976 53.5201 110.39 55.2654 110.39C57.0107 110.39 58.4265 108.976 58.4265 107.23C58.4265 105.484 57.0107 104.069 55.2654 104.069C53.5201 104.069 52.1058 105.484 52.1042 107.23H52.6649Z" fill="#C1E6FB"/>
<path d="M123.893 84.0934H124.454C124.454 82.4527 125.117 80.9719 126.193 79.8949C127.27 78.8196 128.75 78.156 130.391 78.156C133.671 78.1623 136.322 80.8151 136.329 84.0934C136.329 85.7357 135.665 87.2165 134.59 88.2935C133.513 89.3689 132.032 90.0324 130.391 90.0324C128.75 90.0324 127.27 89.3689 126.193 88.2935C125.117 87.2165 124.454 85.7357 124.454 84.0934H123.893H123.332C123.332 87.9926 126.492 91.1537 130.391 91.1537C134.29 91.1537 137.45 87.9926 137.45 84.0934C137.45 80.1942 134.29 77.0347 130.391 77.0347C126.492 77.0347 123.332 80.1942 123.332 84.0934H123.893Z" fill="#C1E6FB"/>
<path d="M125.972 55.7587H126.533C126.535 54.346 127.678 53.2026 129.091 53.201C130.504 53.2026 131.647 54.346 131.65 55.7587C131.647 57.173 130.504 58.3149 129.091 58.3181C127.678 58.3149 126.535 57.173 126.533 55.7587H125.972H125.41C125.412 57.7923 127.059 59.4393 129.091 59.4393C131.124 59.4393 132.771 57.7923 132.771 55.7587C132.771 53.7268 131.124 52.0797 129.091 52.0781C127.059 52.0797 125.412 53.7268 125.41 55.7587H125.972Z" fill="#C1E6FB"/>
<path d="M696.83 311.032H697.391C697.394 309.046 699.002 307.439 700.989 307.436C702.977 307.439 704.584 309.046 704.587 311.032C704.584 313.021 702.977 314.627 700.989 314.632C699.002 314.627 697.394 313.021 697.391 311.032H696.83H696.27C696.27 313.641 698.382 315.753 700.989 315.753C703.596 315.753 705.709 313.641 705.709 311.032C705.709 308.427 703.596 306.313 700.989 306.313C698.382 306.313 696.27 308.427 696.27 311.032H696.83Z" fill="#C1E6FB"/>
<path d="M729.064 344.307H729.624C729.624 339.291 731.656 334.757 734.943 331.469C738.23 328.183 742.765 326.152 747.78 326.152C752.796 326.152 757.332 328.183 760.618 331.469C763.904 334.757 765.936 339.291 765.936 344.307C765.936 349.323 763.904 353.858 760.618 357.146C757.332 360.432 752.796 362.463 747.78 362.463C742.765 362.463 738.23 360.432 734.943 357.146C731.656 353.858 729.624 349.323 729.624 344.307H729.064H728.503C728.503 354.954 737.134 363.584 747.78 363.586C758.428 363.584 767.058 354.954 767.058 344.307C767.058 333.661 758.428 325.03 747.78 325.03C737.134 325.03 728.503 333.661 728.503 344.307H729.064Z" fill="#C1E6FB"/>
<path d="M720.225 294.656H720.785C720.789 293.1 722.048 291.84 723.605 291.839C725.161 291.84 726.42 293.1 726.424 294.656C726.42 296.213 725.161 297.472 723.605 297.475C722.049 297.472 720.789 296.213 720.785 294.656H720.225H719.664C719.664 296.832 721.428 298.597 723.605 298.597C725.782 298.597 727.545 296.832 727.545 294.656C727.545 292.48 725.781 290.716 723.605 290.716C721.428 290.716 719.664 292.48 719.664 294.656H720.225Z" fill="#C1E6FB"/>
<path d="M887.636 199.254H888.196C888.196 196.536 889.297 194.08 891.077 192.298C892.859 190.516 895.315 189.417 898.033 189.417C900.751 189.417 903.207 190.516 904.989 192.298C906.77 194.08 907.87 196.536 907.871 199.254C907.87 201.971 906.77 204.428 904.989 206.209C903.207 207.99 900.752 209.09 898.033 209.09C895.315 209.09 892.859 207.99 891.077 206.209C889.297 204.428 888.196 201.971 888.196 199.254H887.636H887.075C887.075 205.307 891.981 210.212 898.033 210.212C904.086 210.212 908.992 205.307 908.992 199.254C908.992 193.201 904.086 188.294 898.033 188.294C891.981 188.294 887.075 193.201 887.075 199.254H887.636Z" fill="#C1E6FB"/>
<path d="M889.715 237.726H890.276C890.277 236.601 891.188 235.691 892.314 235.687C893.44 235.691 894.351 236.601 894.352 237.726C894.351 238.852 893.44 239.762 892.314 239.766C891.188 239.762 890.277 238.852 890.276 237.726H889.715H889.154C889.154 239.473 890.569 240.887 892.314 240.887C894.059 240.887 895.474 239.473 895.475 237.726C895.474 235.98 894.059 234.566 892.314 234.566C890.569 234.566 889.154 235.98 889.154 237.726H889.715Z" fill="#C1E6FB"/>
<path d="M868.919 207.571H869.48C869.481 206.447 870.394 205.536 871.518 205.533C872.644 205.536 873.555 206.447 873.556 207.571C873.555 208.697 872.644 209.608 871.518 209.611C870.394 209.608 869.481 208.697 869.48 207.571H868.919H868.358C868.358 209.318 869.773 210.733 871.518 210.733C873.263 210.733 874.679 209.318 874.679 207.571C874.679 205.826 873.263 204.412 871.518 204.412C869.773 204.412 868.358 205.826 868.358 207.571H868.919Z" fill="#C1E6FB"/>
<path d="M702.028 240.326H702.59C702.595 237.765 704.666 235.692 707.227 235.687C709.788 235.692 711.861 237.765 711.866 240.326C711.861 242.887 709.788 244.96 707.227 244.963C704.666 244.96 702.595 242.887 702.59 240.326H702.028H701.467C701.469 243.508 704.046 246.086 707.227 246.086C710.409 246.086 712.987 243.508 712.987 240.326C712.987 237.145 710.409 234.566 707.227 234.566C704.046 234.566 701.469 237.145 701.467 240.326H702.028Z" fill="#C1E6FB"/>
<path d="M293.383 235.646H293.944C293.947 233.66 295.554 232.053 297.542 232.05C299.528 232.053 301.135 233.66 301.139 235.646C301.135 237.634 299.528 239.241 297.542 239.246C295.554 239.241 293.947 237.634 293.944 235.646H293.383H292.821C292.822 238.255 294.935 240.367 297.542 240.367C300.149 240.367 302.261 238.255 302.261 235.646C302.26 233.039 300.149 230.927 297.542 230.927C294.935 230.927 292.822 233.039 292.821 235.646H293.383Z" fill="#C1E6FB"/>
</svg>
