<svg width="149" height="147" viewBox="0 0 149 147" fill="none" xmlns="http://www.w3.org/2000/svg">
<path d="M54.4458 131.278C54.3609 131.575 54.3326 131.85 54.3607 132.103C54.3813 132.361 54.4784 132.615 54.652 132.866C54.8197 133.116 55.0772 133.381 55.4244 133.663C55.7658 133.943 56.2111 134.256 56.7602 134.602C57.3351 134.968 57.8431 135.337 58.2841 135.709C58.7236 136.086 59.0811 136.475 59.3568 136.875C59.6325 137.275 59.8114 137.694 59.8934 138.133C59.9755 138.571 59.9458 139.038 59.8043 139.532C59.6627 140.027 59.4303 140.454 59.1068 140.815C58.7834 141.175 58.3885 141.455 57.9223 141.656C57.4485 141.86 56.922 141.973 56.3428 141.996C55.7636 142.019 55.1482 141.938 54.4968 141.751C53.543 141.478 52.787 141.063 52.2288 140.507C51.6632 139.955 51.2899 139.335 51.1091 138.648C50.9266 137.967 50.9303 137.294 51.1201 136.631L52.7951 137.111C52.6586 137.588 52.6397 138.039 52.7384 138.463C52.8354 138.894 53.0604 139.273 53.4134 139.6C53.7648 139.934 54.2574 140.191 54.8914 140.373C55.4905 140.544 56.0106 140.595 56.4519 140.527C56.8932 140.458 57.254 140.297 57.5341 140.044C57.8085 139.789 58.0023 139.463 58.1155 139.068C58.1921 138.8 58.2067 138.54 58.1595 138.288C58.1048 138.039 57.9848 137.788 57.7996 137.533C57.6086 137.277 57.3495 137.017 57.0222 136.754C56.6891 136.489 56.2816 136.208 55.7998 135.913C55.1368 135.503 54.5794 135.098 54.1276 134.698C53.6757 134.298 53.326 133.893 53.0786 133.482C52.8237 133.076 52.6714 132.652 52.6218 132.209C52.5646 131.772 52.6068 131.305 52.7483 130.811C52.8965 130.293 53.1352 129.855 53.4645 129.496C53.7937 129.137 54.1956 128.865 54.6702 128.68C55.1448 128.495 55.6788 128.4 56.2721 128.393C56.858 128.391 57.4853 128.486 58.1542 128.677C58.7416 128.845 59.297 129.092 59.8204 129.418C60.338 129.743 60.7828 130.134 61.1548 130.593C61.5211 131.05 61.7755 131.557 61.9182 132.114C62.0534 132.675 62.0302 133.273 61.8488 133.907L60.1737 133.427C60.2986 132.991 60.3216 132.592 60.2428 132.229C60.1624 131.873 60.0059 131.551 59.7734 131.264C59.535 130.976 59.2439 130.729 58.9 130.524C58.5485 130.322 58.1693 130.163 57.7621 130.047C57.1747 129.879 56.6541 129.818 56.2004 129.864C55.7466 129.91 55.3718 130.055 55.0758 130.297C54.774 130.538 54.5641 130.865 54.4458 131.278Z" fill="#0F1416"/>
<path d="M38.4644 124.035L36.9903 123.106C37.5122 122.448 38.1127 121.943 38.7919 121.592C39.471 121.24 40.2132 121.089 41.0185 121.139C41.8205 121.194 42.6694 121.504 43.565 122.068C44.2202 122.481 44.739 122.98 45.1216 123.564C45.4991 124.145 45.7378 124.782 45.8379 125.474C45.9347 126.172 45.888 126.904 45.6979 127.671C45.4994 128.44 45.1535 129.216 44.66 129.999L43.9584 131.112C43.4649 131.895 42.9159 132.539 42.3112 133.045C41.6981 133.552 41.0536 133.911 40.3776 134.122C39.6964 134.329 39.002 134.381 38.2944 134.279C37.5868 134.176 36.8876 133.907 36.1966 133.471C35.3521 132.939 34.7381 132.331 34.3546 131.645C33.9711 130.96 33.7955 130.235 33.8279 129.469C33.8519 128.704 34.0577 127.929 34.4454 127.144L35.9195 128.073C35.6621 128.64 35.513 129.172 35.472 129.668C35.4278 130.169 35.5204 130.635 35.7496 131.066C35.9789 131.496 36.3827 131.894 36.961 132.258C37.4575 132.571 37.9548 132.752 38.4529 132.802C38.9458 132.848 39.4299 132.777 39.9052 132.591C40.3753 132.401 40.8276 132.103 41.2619 131.697C41.6963 131.292 42.1006 130.792 42.4747 130.198L43.1859 129.07C43.5311 128.522 43.7989 127.972 43.9895 127.42C44.175 126.865 44.2645 126.331 44.2581 125.82C44.2516 125.308 44.1329 124.832 43.9017 124.394C43.6673 123.96 43.3019 123.587 42.8054 123.274C42.1759 122.877 41.6114 122.661 41.112 122.625C40.6126 122.589 40.1505 122.698 39.7256 122.952C39.2957 123.204 38.8753 123.564 38.4644 124.035Z" fill="#0F1416"/>
<path d="M24.1205 123.627L21.2202 120.352C20.5623 119.61 20.1199 118.882 19.8931 118.17C19.6622 117.453 19.6503 116.765 19.8574 116.104C20.056 115.443 20.4768 114.828 21.1198 114.259C21.5727 113.857 22.0693 113.583 22.6096 113.436C23.1414 113.288 23.6911 113.27 24.2586 113.382C24.8176 113.492 25.3711 113.73 25.9191 114.093L26.3867 114.333L29.1125 117.41L28.0581 118.369L26.0002 116.045C25.583 115.575 25.1545 115.255 24.7146 115.087C24.2703 114.923 23.8375 114.886 23.4164 114.976C22.9952 115.066 22.6148 115.262 22.2752 115.563C21.8948 115.9 21.6281 116.269 21.4752 116.672C21.3223 117.074 21.3112 117.504 21.4421 117.962C21.5644 118.419 21.8482 118.899 22.2935 119.402L24.0325 121.365L32.8495 113.554L34.0108 114.865L24.1205 123.627ZM28.8901 109.085L26.537 115.461L25.3207 114.102L27.569 107.758L27.6505 107.685L28.8901 109.085Z" fill="#0F1416"/>
<path d="M13.7906 96.2757L14.5486 95.9259C15.4495 95.5103 16.309 95.2504 17.1271 95.1461C17.9451 95.0419 18.7016 95.0859 19.3967 95.2783C20.0917 95.4707 20.7079 95.8027 21.2453 96.2743C21.7802 96.7404 22.2161 97.3388 22.5532 98.0694C22.8801 98.7781 23.0486 99.4898 23.0586 100.205C23.0661 100.914 22.9201 101.601 22.6204 102.266C22.3182 102.925 21.8645 103.537 21.2593 104.103C20.6542 104.669 19.9011 105.159 19.0002 105.575L18.2421 105.925C17.3412 106.34 16.4832 106.596 15.6682 106.692C14.8451 106.786 14.0847 106.733 13.3871 106.536C12.6841 106.34 12.0651 106.01 11.5303 105.543C10.9929 105.072 10.5607 104.482 10.2338 103.773C9.89671 103.042 9.72443 102.322 9.71693 101.613C9.7069 100.898 9.85701 100.212 10.1673 99.5563C10.4695 98.8972 10.9257 98.2903 11.5359 97.7356C12.1381 97.1779 12.8897 96.6913 13.7906 96.2757ZM15.2747 97.4998L14.5002 97.8571C13.786 98.1866 13.1885 98.5522 12.7076 98.9539C12.2242 99.3502 11.8603 99.7746 11.616 100.227C11.3717 100.68 11.2472 101.153 11.2425 101.649C11.2352 102.138 11.3494 102.639 11.5851 103.15C11.8132 103.644 12.1159 104.047 12.4932 104.36C12.8679 104.666 13.308 104.876 13.8133 104.99C14.3161 105.098 14.8776 105.102 15.4979 105.002C16.1182 104.902 16.7854 104.688 17.4996 104.358L18.2741 104.001C18.9938 103.669 19.5955 103.298 20.0794 102.888C20.5577 102.481 20.9206 102.047 21.1678 101.587C21.407 101.123 21.5315 100.649 21.5413 100.165C21.5486 99.6755 21.4382 99.1835 21.2101 98.6891C20.9719 98.1727 20.6641 97.7583 20.2868 97.446C19.9096 97.1337 19.4708 96.9264 18.9705 96.8241C18.4622 96.7188 17.9005 96.7214 17.2853 96.8321C16.6645 96.9452 15.9944 97.1678 15.2747 97.4998Z" fill="#0F1416"/>
<path d="M15.6295 78.2272L17.0385 78.0161L18.0173 84.5495L16.6083 84.7606L15.6295 78.2272ZM4.89941 86.1662L17.9662 84.2085L18.2257 85.9405L5.15891 87.8982L4.89941 86.1662Z" fill="#0F1416"/>
<path d="M16.5087 63.2967L17.9252 63.4493L17.2172 70.0176L15.8007 69.8649L16.5087 63.2967ZM4.11758 68.2587L17.2542 69.6748L17.0664 71.4161L3.92988 70L4.11758 68.2587Z" fill="#0F1416"/>
<path d="M24.937 45.3307L23.5035 47.6877L22.2956 46.9319L23.7197 44.5904C24.2101 43.784 24.4508 43.0099 24.4417 42.268C24.4275 41.523 24.1971 40.8306 23.7507 40.1909C23.3022 39.5428 22.667 38.9689 21.8452 38.4691L21.1551 38.0494C20.509 37.6565 19.8881 37.3851 19.2924 37.2352C18.6916 37.0822 18.1268 37.0503 17.5982 37.1395C17.0643 37.2255 16.575 37.4306 16.13 37.7548C15.6882 38.0737 15.2975 38.5124 14.958 39.0706L13.4113 41.6137L12.1863 40.8687L13.733 38.3256C14.1825 37.5864 14.7168 36.9873 15.3358 36.5283C15.9497 36.0661 16.6228 35.7568 17.3553 35.6004C18.0856 35.4356 18.8513 35.434 19.6524 35.5954C20.4483 35.7538 21.2546 36.0813 22.0713 36.578L22.7458 36.9882C23.5625 37.4849 24.2268 38.0517 24.7386 38.6887C25.2453 39.3226 25.5919 40.0042 25.7784 40.7337C25.9681 41.458 25.9952 42.2109 25.8598 42.9924C25.7224 43.7656 25.4148 44.545 24.937 45.3307ZM12.7003 40.0236L23.9892 46.8891L23.0791 48.3855L11.7902 41.52L12.7003 40.0236Z" fill="#0F1416"/>
<path d="M35.6272 22.7626L36.1793 23.3889C36.8354 24.1331 37.3305 24.8822 37.6645 25.6362C37.9986 26.3901 38.1729 27.1276 38.1876 27.8487C38.2022 28.5697 38.0605 29.2551 37.7624 29.905C37.4689 30.5509 37.0203 31.1399 36.4168 31.672C35.8314 32.1881 35.1976 32.5533 34.5155 32.7676C33.8379 32.9778 33.1378 33.0345 32.4152 32.9376C31.6972 32.8367 30.9805 32.5773 30.2653 32.1594C29.5501 31.7415 28.8644 31.1604 28.2083 30.4162L27.6562 29.7899C27.0001 29.0457 26.5092 28.2969 26.1837 27.5434C25.8588 26.7815 25.6912 26.038 25.6811 25.3129C25.667 24.5834 25.8067 23.8957 26.1003 23.2497C26.3983 22.5998 26.8401 22.0168 27.4255 21.5007C28.029 20.9686 28.6696 20.5975 29.3472 20.3872C30.0294 20.173 30.7292 20.1205 31.4467 20.23C32.1647 20.3309 32.8768 20.5943 33.583 21.0202C34.2897 21.4376 34.9711 22.0184 35.6272 22.7626ZM34.8792 24.5351L34.3151 23.8952C33.795 23.3053 33.2736 22.8374 32.751 22.4916C32.2329 22.1418 31.7222 21.9147 31.2187 21.8101C30.7152 21.7056 30.2255 21.7219 29.7497 21.8592C29.2784 21.9924 28.8317 22.245 28.4097 22.6171C28.0013 22.9772 27.7014 23.3826 27.5102 23.8335C27.3235 24.2804 27.2481 24.7622 27.2842 25.2788C27.3248 25.7914 27.4816 26.3306 27.7546 26.8965C28.0277 27.4623 28.4242 28.0402 28.9443 28.6301L29.5084 29.27C30.0325 29.8644 30.5601 30.3348 31.0913 30.6812C31.6184 31.0229 32.138 31.2464 32.65 31.3515C33.1626 31.448 33.6523 31.4317 34.119 31.3024C34.5903 31.1692 35.0302 30.9226 35.4386 30.5625C35.8652 30.1864 36.1741 29.773 36.3653 29.3221C36.5566 28.8712 36.6296 28.3914 36.5845 27.8828C36.5399 27.3656 36.3765 26.8282 36.0944 26.2703C35.8083 25.708 35.4033 25.1296 34.8792 24.5351Z" fill="#0F1416"/>
<path d="M48.2893 18.8538L47.2654 9.32303L48.4433 8.84691L49.1052 12.4456L50.097 22.4298L48.9275 22.9025L48.2893 18.8538ZM42.3184 11.3228L47.6408 18.9202L49.7857 22.5556L48.6247 23.0249L40.7031 11.9757L42.3184 11.3228ZM54.9737 15.9462L53.4828 6.80978L55.1066 6.15341L57.0968 19.6002L55.9358 20.0696L54.9737 15.9462ZM48.62 8.77549L54.4394 16.3677L56.7939 19.7227L55.6245 20.1954L49.4922 12.2892L47.4589 9.24481L48.62 8.77549Z" fill="#0F1416"/>
<path d="M76.007 3.84823L76.6111 17.0471L74.8524 17.1276L67.7418 7.25149L68.2077 17.4317L66.4581 17.5117L65.8541 4.31287L67.6037 4.2328L74.7427 14.1348L74.2756 3.92747L76.007 3.84823Z" fill="#0F1416"/>
<path d="M103.016 10.2606L97.7304 22.3699L96.1502 21.6801L101.436 9.57087L103.016 10.2606ZM106.909 11.9597L106.335 13.2737L96.9786 9.18951L97.5522 7.87546L106.909 11.9597Z" fill="#0F1416"/>
<path d="M119.421 28.7736L118.88 29.4098C118.238 30.1659 117.568 30.7634 116.869 31.2021C116.171 31.6409 115.466 31.9192 114.755 32.0372C114.043 32.1551 113.345 32.1132 112.659 31.9115C111.977 31.7136 111.33 31.3542 110.717 30.8333C110.122 30.328 109.67 29.7531 109.36 29.1088C109.055 28.4684 108.898 27.7836 108.89 27.0546C108.887 26.3296 109.041 25.5831 109.352 24.8153C109.663 24.0475 110.14 23.2856 110.782 22.5295L111.323 21.8932C111.965 21.1371 112.636 20.544 113.335 20.1137C114.042 19.6828 114.754 19.4103 115.47 19.2963C116.19 19.1777 116.891 19.2173 117.572 19.4151C118.258 19.6169 118.898 19.9704 119.493 20.4757C120.106 20.9967 120.565 21.5774 120.871 22.2178C121.181 22.8621 121.333 23.5472 121.328 24.273C121.331 24.9981 121.172 25.7406 120.852 26.5005C120.54 27.2598 120.063 28.0175 119.421 28.7736ZM117.559 28.2876L118.112 27.6375C118.621 27.0382 119.009 26.4551 119.276 25.8883C119.548 25.3254 119.7 24.7873 119.731 24.274C119.762 23.7607 119.676 23.2785 119.472 22.8273C119.272 22.3799 118.958 21.9741 118.529 21.6099C118.114 21.2573 117.67 21.0188 117.197 20.8942C116.727 20.7735 116.24 20.7681 115.734 20.8779C115.232 20.9917 114.721 21.2242 114.2 21.5756C113.68 21.9269 113.165 22.4023 112.655 23.0017L112.103 23.6517C111.59 24.2557 111.2 24.8453 110.934 25.4207C110.671 25.9914 110.524 26.5377 110.494 27.0595C110.472 27.5806 110.558 28.0628 110.753 28.5062C110.953 28.9535 111.26 29.3535 111.675 29.706C112.108 30.0742 112.562 30.3206 113.035 30.4452C113.509 30.5698 113.994 30.5732 114.491 30.4556C114.996 30.3372 115.505 30.0985 116.017 29.7393C116.532 29.3754 117.046 28.8916 117.559 28.2876Z" fill="#0F1416"/>
<path d="M129.395 55.0657L128.088 55.6325L125.304 49.2137L126.611 48.6468L129.395 55.0657ZM137.566 44.2812L125.445 49.5383L124.748 47.9315L136.87 42.6744L137.566 44.2812ZM134.629 51.7865L133.322 52.3534L130.907 46.7837L132.214 46.2168L134.629 51.7865ZM140.173 50.2921L138.858 50.8626L136.11 44.527L137.426 43.9565L140.173 50.2921Z" fill="#0F1416"/>
<path d="M143.248 62.0913L138.623 65.8771L144.044 68.3935L144.3 70.4192L137.286 67.0979L131.204 72.1743L130.946 70.1307L135.661 66.2513L130.13 63.6664L129.871 61.6227L137.024 65.0272L142.992 60.0657L143.248 62.0913Z" fill="#0F1416"/>
<path d="M135.251 84.9218L135.838 81.4409L137.243 81.6777L136.656 85.1586C136.543 85.8327 136.558 86.3967 136.702 86.8505C136.847 87.3043 137.094 87.6588 137.443 87.9141C137.792 88.1753 138.211 88.3471 138.7 88.4296C139.147 88.505 139.585 88.4775 140.012 88.347C140.437 88.2225 140.805 87.9715 141.114 87.5942C141.429 87.2178 141.643 86.6926 141.757 86.0185L142.276 82.9402L130.661 80.9822L130.952 79.2552L143.981 81.4515L143.171 86.2568C143.005 87.2411 142.694 88.0447 142.24 88.6674C141.785 89.2902 141.227 89.7268 140.565 89.9772C139.909 90.2286 139.196 90.2894 138.427 90.1597C137.592 90.0189 136.908 89.7227 136.377 89.2712C135.846 88.8196 135.482 88.2277 135.287 87.4953C135.097 86.764 135.085 85.9061 135.251 84.9218Z" fill="#0F1416"/>
<path d="M124.848 103.32L123.56 102.711L126.382 96.7382L127.67 97.3468L124.848 103.32ZM138.181 102.694L126.235 97.05L126.983 95.4664L138.929 101.111L138.181 102.694Z" fill="#0F1416"/>
<path d="M118.508 120.474L117.883 119.921C117.14 119.263 116.557 118.58 116.132 117.873C115.708 117.166 115.444 116.456 115.341 115.742C115.238 115.028 115.294 114.33 115.51 113.649C115.722 112.972 116.095 112.332 116.628 111.73C117.146 111.146 117.73 110.705 118.38 110.409C119.027 110.117 119.715 109.974 120.444 109.982C121.169 109.993 121.912 110.163 122.673 110.49C123.434 110.816 124.186 111.309 124.929 111.967L125.554 112.52C126.297 113.178 126.876 113.861 127.291 114.568C127.708 115.285 127.965 116.002 128.065 116.72C128.168 117.443 128.114 118.142 127.902 118.819C127.686 119.501 127.32 120.134 126.802 120.718C126.269 121.32 125.679 121.767 125.032 122.059C124.381 122.356 123.693 122.494 122.968 122.474C122.243 122.462 121.504 122.288 120.751 121.952C119.998 121.625 119.25 121.132 118.508 120.474ZM119.032 118.623L119.671 119.189C120.259 119.711 120.834 120.111 121.395 120.39C121.952 120.673 122.487 120.836 123 120.877C123.512 120.919 123.996 120.843 124.452 120.648C124.903 120.458 125.315 120.152 125.688 119.731C126.049 119.324 126.297 118.884 126.431 118.413C126.562 117.947 126.577 117.46 126.478 116.951C126.374 116.448 126.153 115.932 125.812 115.404C125.471 114.876 125.007 114.351 124.418 113.83L123.78 113.264C123.186 112.738 122.605 112.337 122.035 112.058C121.47 111.784 120.927 111.626 120.406 111.585C119.885 111.552 119.401 111.628 118.954 111.814C118.503 112.004 118.097 112.303 117.735 112.711C117.358 113.136 117.103 113.585 116.968 114.056C116.834 114.527 116.821 115.012 116.928 115.511C117.036 116.019 117.264 116.532 117.613 117.051C117.966 117.574 118.439 118.098 119.032 118.623Z" fill="#0F1416"/>
<path d="M114.24 131.825L110.519 134.123C109.674 134.644 108.882 134.956 108.141 135.057C107.396 135.162 106.715 135.056 106.1 134.739C105.483 134.431 104.949 133.911 104.497 133.18C104.179 132.665 103.994 132.129 103.941 131.572C103.887 131.022 103.963 130.478 104.169 129.938C104.374 129.406 104.703 128.901 105.154 128.423L105.471 128.004L108.969 125.844L109.733 127.046L107.092 128.677C106.557 129.008 106.168 129.375 105.928 129.78C105.69 130.19 105.58 130.61 105.597 131.04C105.614 131.47 105.741 131.879 105.98 132.265C106.247 132.697 106.565 133.023 106.935 133.242C107.305 133.462 107.727 133.546 108.201 133.496C108.672 133.453 109.194 133.256 109.765 132.903L111.997 131.525L105.808 121.503L107.298 120.583L114.24 131.825ZM100.728 124.64L106.608 128.048L105.06 129.014L99.1942 125.715L99.137 125.622L100.728 124.64Z" fill="#0F1416"/>
<path d="M85.8025 131.535L85.4105 130.165L92.1369 128.24L92.529 129.609L85.8025 131.535ZM95.4326 141.04L91.7966 128.337L93.4804 127.855L97.1164 140.558L95.4326 141.04ZM88.3731 137.151L87.981 135.782L93.8175 134.111L94.2096 135.481L88.3731 137.151ZM89.1337 142.843L88.7392 141.464L95.3783 139.564L95.7729 140.942L89.1337 142.843Z" fill="#0F1416"/>
</svg>
