<svg width="65" height="65" viewBox="0 0 65 65" fill="none" xmlns="http://www.w3.org/2000/svg">
<g clip-path="url(#clip0_434_134)">
<path fill-rule="evenodd" clip-rule="evenodd" d="M38.1031 0.958461C39.6037 0.328931 41.2141 0.00327059 42.8413 0.000326657C44.4684 -0.011529 46.0817 0.299441 47.5877 0.915247C49.094 1.53105 50.463 2.43946 51.6156 3.58789C55.4397 7.38048 58.0533 12.2217 59.1262 17.4995C60.1994 22.7772 59.6835 28.2548 57.6441 33.2395C55.6048 38.224 52.1334 42.4923 47.6684 45.5043C43.2038 48.5163 37.9464 50.1372 32.5606 50.1617C27.1749 50.1864 21.9028 48.6137 17.4107 45.6426C12.9187 42.6714 9.40833 38.4352 7.32346 33.4692C5.23858 28.5035 4.67277 23.0309 5.69754 17.7435C6.72231 12.4562 9.29166 7.59132 13.0808 3.76393C15.3948 1.43415 18.5384 0.117301 21.8221 0.102264C25.1057 0.0872276 28.2612 1.37523 30.5965 3.68372C31.0635 4.14555 31.6947 4.40324 32.3515 4.40025C33.0083 4.39728 33.6369 4.13386 34.0997 3.66784C35.2419 2.50889 36.6026 1.58799 38.1031 0.958461ZM54.2816 18.4942C53.4016 14.1734 51.2602 10.2106 48.1278 7.10696H48.1273C46.7273 5.7198 44.8335 4.94559 42.8626 4.95463C40.8917 4.96367 39.005 5.75522 37.6177 7.15514C36.2294 8.55303 34.3434 9.34315 32.3733 9.35214C30.4031 9.3611 28.5099 8.58824 27.1089 7.20306C25.7076 5.81798 23.8142 5.04521 21.8439 5.05424C19.8736 5.06328 17.9874 5.85337 16.5988 7.25124C13.4951 10.3834 11.39 14.3656 10.5495 18.6943C9.70903 23.0229 10.171 27.5037 11.8771 31.5697C13.5831 35.6356 16.4566 39.1047 20.1341 41.5376C23.8116 43.9707 28.128 45.2585 32.5374 45.2382C36.9469 45.2181 41.2514 43.8907 44.9064 41.4243C48.5617 38.9576 51.4031 35.4627 53.0719 31.3811C54.7407 27.2995 55.1615 22.8149 54.2816 18.4942ZM25.9531 15.1779C25.8277 15.4797 25.6439 15.7538 25.4121 15.9842L25.4113 15.9847C24.0351 17.374 23.1016 19.1401 22.7291 21.0598C22.3565 22.9795 22.5616 24.9665 23.3183 26.7696C24.075 28.5727 25.3494 30.1111 26.9803 31.19C28.6112 32.2689 30.5255 32.84 32.481 32.8312C34.4365 32.822 36.3454 32.2335 37.9662 31.1397C39.5874 30.0459 40.8475 28.4959 41.5877 26.686C42.3278 24.876 42.5148 22.8871 42.1247 20.9709C41.7345 19.0547 40.7848 17.2972 39.396 15.9207C39.165 15.6917 38.9811 15.4194 38.8551 15.1194C38.7293 14.8194 38.6637 14.4976 38.6621 14.1723C38.6608 13.8469 38.7233 13.5245 38.8465 13.2233C38.9694 12.9222 39.1506 12.6482 39.3796 12.4171C39.6087 12.186 39.8809 12.0022 40.1809 11.8763C40.4809 11.7504 40.8028 11.6848 41.128 11.6833C41.4536 11.6818 41.776 11.7444 42.077 11.8675C42.3783 11.9906 42.6523 12.1718 42.8833 12.4008C44.9661 14.4666 46.3896 17.1035 46.974 19.9782C47.5586 22.8529 47.2776 25.8364 46.1667 28.5514C45.056 31.2665 43.165 33.5913 40.7332 35.232C38.3014 36.8726 35.4376 37.7555 32.5042 37.7687C29.5707 37.7823 26.6991 36.9258 24.2523 35.3072C21.8056 33.689 19.8935 31.3816 18.7579 28.6769C17.6222 25.9721 17.314 22.9914 17.872 20.1115C18.4301 17.2315 19.8295 14.5817 21.8933 12.4969C22.1216 12.2631 22.394 12.0768 22.6947 11.9487C22.9954 11.8206 23.3184 11.7533 23.6453 11.7506C23.9721 11.7479 24.2962 11.8099 24.5989 11.9331C24.9017 12.0563 25.1771 12.2381 25.4092 12.4682C25.6414 12.6982 25.8257 12.972 25.9515 13.2736C26.0774 13.5752 26.1424 13.8988 26.1426 14.2256C26.1429 14.5524 26.0785 14.8761 25.9531 15.1779ZM32.4359 27.3284C34.6589 27.3284 36.4607 25.5265 36.4607 23.3036C36.4607 21.0808 34.6589 19.2788 32.4359 19.2788C30.2131 19.2788 28.4111 21.0808 28.4111 23.3036C28.4111 25.5265 30.2131 27.3284 32.4359 27.3284ZM52.1667 64.6941C52.6018 64.898 53.0845 65 53.6148 65C54.1247 65 54.5938 64.9014 55.0221 64.7043C55.4572 64.5071 55.8312 64.2386 56.1439 63.8986C56.4634 63.5519 56.7116 63.161 56.8883 62.7259C57.0651 62.2839 57.1535 61.825 57.1535 61.3491C57.1535 60.8868 57.0685 60.4381 56.8985 60.003C56.7286 59.5679 56.4906 59.1736 56.1847 58.82C55.8787 58.4665 55.5082 58.1844 55.0731 57.9736C54.6448 57.7628 54.1689 57.6575 53.6454 57.6575C53.1287 57.6575 52.6528 57.7594 52.2177 57.9634C51.7894 58.1606 51.4154 58.4325 51.0959 58.7792C50.7832 59.1192 50.535 59.5101 50.3515 59.952C50.1747 60.3871 50.0863 60.846 50.0863 61.3287C50.0863 61.791 50.1713 62.2432 50.3413 62.6851C50.5112 63.1202 50.7492 63.5145 51.0551 63.868C51.3678 64.2148 51.7384 64.4901 52.1667 64.6941ZM51.6568 62.2364C51.5616 61.944 51.514 61.6415 51.514 61.3287C51.514 61.0296 51.5582 60.7373 51.6466 60.4517C51.7418 60.1662 51.8778 59.9078 52.0545 59.6767C52.2313 59.4455 52.4488 59.262 52.7072 59.126C52.9723 58.9832 53.2783 58.9118 53.625 58.9118C53.9513 58.9118 54.2437 58.9798 54.502 59.1158C54.7672 59.245 54.9881 59.4251 55.1649 59.6563C55.3485 59.8806 55.4878 60.139 55.583 60.4313C55.685 60.7169 55.736 61.016 55.736 61.3287C55.736 61.6211 55.6884 61.9134 55.5932 62.2058C55.5048 62.4913 55.3722 62.7531 55.1955 62.991C55.0187 63.2222 54.7978 63.4091 54.5326 63.5519C54.2675 63.6879 53.9649 63.7559 53.625 63.7559C53.2919 63.7559 52.9927 63.6913 52.7276 63.5621C52.4692 63.4261 52.2483 63.246 52.0647 63.0216C51.8879 62.7904 51.752 62.5287 51.6568 62.2364ZM13.6503 58.9424H11.3353V64.949H9.93822V58.9424H7.62328V57.7085H13.6503V58.9424ZM18.6283 64.949V57.7085H21.8305C22.1636 57.7085 22.4695 57.7764 22.7483 57.9124C23.0338 58.0484 23.2786 58.232 23.4825 58.4631C23.6933 58.6943 23.8531 58.9526 23.9618 59.2382C24.0774 59.5237 24.1352 59.816 24.1352 60.1152C24.1352 60.4211 24.0808 60.7169 23.972 61.0024C23.8701 61.2811 23.7205 61.5259 23.5233 61.7367C23.3262 61.9474 23.095 62.1106 22.8299 62.2262L24.4819 64.949H22.9318L21.4429 62.5219H20.0356V64.949H18.6283ZM20.0356 61.2879H21.7999C21.9766 61.2879 22.133 61.237 22.269 61.135C22.405 61.0262 22.5137 60.8834 22.5953 60.7067C22.6769 60.5299 22.7177 60.3327 22.7177 60.1152C22.7177 59.884 22.6701 59.6835 22.5749 59.5135C22.4797 59.3367 22.3574 59.1974 22.2078 59.0954C22.065 58.9934 21.9087 58.9424 21.7387 58.9424H20.0356V61.2879ZM32.8855 57.7085H31.4577L28.7859 64.949H30.234L30.8969 63.144H33.4259L34.099 64.949H35.5471L32.8855 57.7085ZM32.1716 59.1668L33.171 62.1548H31.1314L32.1716 59.1668ZM40.5773 57.7085L42.5354 63.2766L44.473 57.7085H45.9517L43.2084 64.949H41.8521L39.0986 57.7085H40.5773Z" fill="#35AFF4"/>
</g>
<defs>
<clipPath id="clip0_434_134">
<rect width="65" height="65" fill="white"/>
</clipPath>
</defs>
</svg>
