<svg width="104" height="20" viewBox="0 0 104 20" fill="none" xmlns="http://www.w3.org/2000/svg">
<path d="M14.7192 18.8919C14.2775 18.8919 13.7108 18.7503 13.0025 18.3336L10.5108 16.8586C10.2525 16.7086 9.75247 16.7086 9.50247 16.8586L7.00244 18.3336C5.52742 19.2086 4.66075 18.8586 4.26908 18.5753C3.88574 18.2919 3.28573 17.5669 3.6774 15.9003L4.26908 13.3419C4.33574 13.0752 4.20241 12.6169 4.00241 12.4169L1.93572 10.3502C0.902375 9.31685 0.98571 8.43351 1.12738 8.00017C1.26905 7.56683 1.71905 6.80016 3.1524 6.55849L5.81076 6.11682C6.06076 6.07515 6.4191 5.80848 6.52743 5.58348L8.00245 2.64178C8.66912 1.3001 9.54413 1.1001 10.0025 1.1001C10.4608 1.1001 11.3358 1.3001 12.0025 2.64178L13.4692 5.57514C13.5858 5.80015 13.9442 6.06682 14.1942 6.10848L16.8525 6.55015C18.2942 6.79182 18.7442 7.5585 18.8776 7.99184C19.0109 8.42517 19.0942 9.30852 18.0692 10.3419L16.0025 12.4169C15.8025 12.6169 15.6775 13.0669 15.7359 13.3419L16.3275 15.9003C16.7109 17.5669 16.1192 18.2919 15.7359 18.5753C15.5275 18.7253 15.1942 18.8919 14.7192 18.8919Z" fill="#FFCA01"/>
<path d="M35.7192 18.8919C35.2775 18.8919 34.7108 18.7503 34.0025 18.3336L31.5108 16.8586C31.2525 16.7086 30.7525 16.7086 30.5025 16.8586L28.0024 18.3336C26.5274 19.2086 25.6607 18.8586 25.2691 18.5753C24.8857 18.2919 24.2857 17.5669 24.6774 15.9003L25.2691 13.3419C25.3357 13.0752 25.2024 12.6169 25.0024 12.4169L22.9357 10.3502C21.9024 9.31685 21.9857 8.43351 22.1274 8.00017C22.269 7.56683 22.7191 6.80016 24.1524 6.55849L26.8108 6.11682C27.0608 6.07515 27.4191 5.80848 27.5274 5.58348L29.0025 2.64178C29.6691 1.3001 30.5441 1.1001 31.0025 1.1001C31.4608 1.1001 32.3358 1.3001 33.0025 2.64178L34.4692 5.57514C34.5858 5.80015 34.9442 6.06682 35.1942 6.10848L37.8525 6.55015C39.2942 6.79182 39.7442 7.5585 39.8776 7.99184C40.0109 8.42517 40.0942 9.30852 39.0692 10.3419L37.0025 12.4169C36.8025 12.6169 36.6775 13.0669 36.7359 13.3419L37.3275 15.9003C37.7109 17.5669 37.1192 18.2919 36.7359 18.5753C36.5275 18.7253 36.1942 18.8919 35.7192 18.8919Z" fill="#FFCA01"/>
<path d="M56.7192 18.8919C56.2775 18.8919 55.7108 18.7503 55.0025 18.3336L52.5108 16.8586C52.2525 16.7086 51.7525 16.7086 51.5025 16.8586L49.0024 18.3336C47.5274 19.2086 46.6607 18.8586 46.2691 18.5753C45.8857 18.2919 45.2857 17.5669 45.6774 15.9003L46.2691 13.3419C46.3357 13.0752 46.2024 12.6169 46.0024 12.4169L43.9357 10.3502C42.9024 9.31685 42.9857 8.43351 43.1274 8.00017C43.269 7.56683 43.7191 6.80016 45.1524 6.55849L47.8108 6.11682C48.0608 6.07515 48.4191 5.80848 48.5274 5.58348L50.0025 2.64178C50.6691 1.3001 51.5441 1.1001 52.0025 1.1001C52.4608 1.1001 53.3358 1.3001 54.0025 2.64178L55.4692 5.57514C55.5858 5.80015 55.9442 6.06682 56.1942 6.10848L58.8525 6.55015C60.2942 6.79182 60.7442 7.5585 60.8776 7.99184C61.0109 8.42517 61.0942 9.30852 60.0692 10.3419L58.0025 12.4169C57.8025 12.6169 57.6775 13.0669 57.7359 13.3419L58.3275 15.9003C58.7109 17.5669 58.1192 18.2919 57.7359 18.5753C57.5275 18.7253 57.1942 18.8919 56.7192 18.8919Z" fill="#FFCA01"/>
<path d="M77.7192 18.8919C77.2775 18.8919 76.7108 18.7503 76.0025 18.3336L73.5108 16.8586C73.2525 16.7086 72.7525 16.7086 72.5025 16.8586L70.0024 18.3336C68.5274 19.2086 67.6607 18.8586 67.2691 18.5753C66.8857 18.2919 66.2857 17.5669 66.6774 15.9003L67.2691 13.3419C67.3357 13.0752 67.2024 12.6169 67.0024 12.4169L64.9357 10.3502C63.9024 9.31685 63.9857 8.43351 64.1274 8.00017C64.269 7.56683 64.7191 6.80016 66.1524 6.55849L68.8108 6.11682C69.0608 6.07515 69.4191 5.80848 69.5274 5.58348L71.0025 2.64178C71.6691 1.3001 72.5441 1.1001 73.0025 1.1001C73.4608 1.1001 74.3358 1.3001 75.0025 2.64178L76.4692 5.57514C76.5858 5.80015 76.9442 6.06682 77.1942 6.10848L79.8525 6.55015C81.2942 6.79182 81.7442 7.5585 81.8776 7.99184C82.0109 8.42517 82.0942 9.30852 81.0692 10.3419L79.0025 12.4169C78.8025 12.6169 78.6775 13.0669 78.7359 13.3419L79.3275 15.9003C79.7109 17.5669 79.1192 18.2919 78.7359 18.5753C78.5275 18.7253 78.1942 18.8919 77.7192 18.8919Z" fill="#FFCA01"/>
<path d="M98.7192 18.8919C98.2775 18.8919 97.7108 18.7503 97.0025 18.3336L94.5108 16.8586C94.2525 16.7086 93.7525 16.7086 93.5025 16.8586L91.0024 18.3336C89.5274 19.2086 88.6607 18.8586 88.2691 18.5753C87.8857 18.2919 87.2857 17.5669 87.6774 15.9003L88.2691 13.3419C88.3357 13.0752 88.2024 12.6169 88.0024 12.4169L85.9357 10.3502C84.9024 9.31685 84.9857 8.43351 85.1274 8.00017C85.269 7.56683 85.7191 6.80016 87.1524 6.55849L89.8108 6.11682C90.0608 6.07515 90.4191 5.80848 90.5274 5.58348L92.0025 2.64178C92.6691 1.3001 93.5441 1.1001 94.0025 1.1001C94.4608 1.1001 95.3358 1.3001 96.0025 2.64178L97.4692 5.57514C97.5858 5.80015 97.9442 6.06682 98.1942 6.10848L100.853 6.55015C102.294 6.79182 102.744 7.5585 102.878 7.99184C103.011 8.42517 103.094 9.30852 102.069 10.3419L100.003 12.4169C99.8025 12.6169 99.6775 13.0669 99.7359 13.3419L100.328 15.9003C100.711 17.5669 100.119 18.2919 99.7359 18.5753C99.5275 18.7253 99.1942 18.8919 98.7192 18.8919Z" fill="#A6AAAC" fill-opacity="0.2"/>
</svg>
